<svg clip-rule="evenodd" fill-rule="evenodd" height="512" image-rendering="optimizeQuality" shape-rendering="geometricPrecision" text-rendering="geometricPrecision" viewBox="0 0 28444 28444" width="512" xmlns="http://www.w3.org/2000/svg"><g id="Layer_x0020_1"><g id="_229953256" fill-rule="nonzero"><path d="m19891 24513c0 184-149 333-333 333s-333-149-333-333v-1836c0-184 149-333 333-333s333 149 333 333zm0-12335c0 184-149 333-333 333s-333-149-333-333v-7831l-14082-83v20249c0 184-149 333-333 333s-333-149-333-333v-20583h1v-1c1-183 150-331 333-331l14720 87c9-1 18-1 27-1 184 0 333 149 333 333z"/><path d="m7440 8513c-184 0-333-149-333-333s149-333 333-333h9347c184 0 333 149 333 333s-149 333-333 333z"/><path d="m7440 13935c-184 0-333-149-333-333s149-333 333-333h7229c184 0 333 149 333 333s-149 333-333 333z"/><path d="m7440 11224c-184 0-333-149-333-333s149-333 333-333h9347c184 0 333 149 333 333s-149 333-333 333z"/><path d="m7440 16647c-184 0-333-149-333-333s149-333 333-333h5616c184 0 333 149 333 333s-149 333-333 333z"/><path d="m7440 19358c-184 0-333-149-333-333s149-333 333-333h4930c184 0 333 149 333 333s-149 333-333 333z"/><path d="m4808 24847c-184 0-333-149-333-333s149-333 333-333h14749c184 0 333 149 333 333s-149 333-333 333z"/><path d="m19488 12947c1237 0 2358 502 3169 1313s1313 1931 1313 3169c0 1237-502 2358-1313 3169s-1931 1313-3169 1313c-1237 0-2358-502-3169-1313s-1313-1931-1313-3169c0-1237 502-2358 1313-3169s1931-1313 3169-1313zm2697 1784c-690-690-1644-1117-2697-1117s-2007 427-2697 1117-1117 1644-1117 2697 427 2007 1117 2697 1644 1117 2697 1117 2007-427 2697-1117 1117-1644 1117-2697-427-2007-1117-2697z"/><path d="m19505 17096c183-1 333 146 335 329 1 183-146 333-329 335-361 3-696-123-957-339s-448-521-513-876c-74-403 23-797 238-1109 216-312 550-542 953-616s797 23 1109 238c312 216 542 550 616 953 33 180-86 354-267 387-180 33-354-86-387-267-41-222-168-407-340-526s-390-172-612-132c-222 41-407 168-526 340s-172 390-132 612c36 195 139 363 284 483s330 190 528 188z"/><path d="m18014 18796c-27-182 99-351 281-378s351 99 378 281c33 223 153 412 321 536s384 185 608 151c223-33 412-153 536-321s185-384 151-608c-29-199-129-372-270-496-142-124-327-199-528-202-183-2-330-153-328-336s153-330 336-328c364 5 700 141 957 366 258 225 438 540 492 899 60 404-50 795-276 1100s-569 524-974 584c-404 60-795-50-1100-276s-524-569-584-974z"/><path d="m19155 14699c0-184 149-333 333-333s333 149 333 333v5458c0 184-149 333-333 333s-333-149-333-333z"/></g></g></svg>