<svg clip-rule="evenodd" fill-rule="evenodd" height="512" image-rendering="optimizeQuality" shape-rendering="geometricPrecision" text-rendering="geometricPrecision" viewBox="0 0 28444 28444" width="512" xmlns="http://www.w3.org/2000/svg"><g id="Layer_x0020_1"><g id="_229954600" fill-rule="nonzero"><path d="m5534 6258h17377c533 0 1017 218 1368 569s569 835 569 1368v13466c0 533-218 1017-569 1368s-835 569-1368 569h-17377c-533 0-1017-218-1368-569s-569-835-569-1368v-13466c0-533 218-1017 569-1368s835-569 1368-569zm17377 667h-17377c-349 0-666 143-896 373s-373 548-373 896v13466c0 349 143 666 373 896s548 373 896 373h17377c349 0 666-143 896-373s373-548 373-896v-13466c0-349-143-666-373-896s-548-373-896-373z"/><path d="m3931 11133c-184 0-333-149-333-333s149-333 333-333h20583c184 0 333 149 333 333s-149 333-333 333z"/><path d="m8640 8195c0 184-149 333-333 333s-333-149-333-333v-3014c0-184 149-333 333-333s333 149 333 333z"/><path d="m12584 8195c0 184-149 333-333 333s-333-149-333-333v-3014c0-184 149-333 333-333s333 149 333 333z"/><path d="m16527 8195c0 184-149 333-333 333s-333-149-333-333v-3014c0-184 149-333 333-333s333 149 333 333z"/><path d="m20471 8195c0 184-149 333-333 333s-333-149-333-333v-3014c0-184 149-333 333-333s333 149 333 333z"/><path d="m13517 12478h1411c184 0 333 149 333 333v1411c0 184-149 333-333 333h-1411c-184 0-333-149-333-333v-1411c0-184 149-333 333-333zm1077 667h-744v744h744z"/><path d="m13517 15941h1411c184 0 333 149 333 333v1411c0 184-149 333-333 333h-1411c-184 0-333-149-333-333v-1411c0-184 149-333 333-333zm1077 667h-744v744h744z"/><path d="m9894 15941h1411c184 0 333 149 333 333v1411c0 184-149 333-333 333h-1411c-184 0-333-149-333-333v-1411c0-184 149-333 333-333zm1077 667h-744v744h744z"/><path d="m6271 15941h1411c184 0 333 149 333 333v1411c0 184-149 333-333 333h-1411c-184 0-333-149-333-333v-1411c0-184 149-333 333-333zm1077 667h-744v744h744z"/><path d="m14928 21481h-1411c-184 0-333-149-333-333v-1411c0-184 149-333 333-333h1411c184 0 333 149 333 333v1411c0 184-149 333-333 333zm-1077-667h744v-744h-744z"/><path d="m20763 12478h1411c184 0 333 149 333 333v1411c0 184-149 333-333 333h-1411c-184 0-333-149-333-333v-1411c0-184 149-333 333-333zm1077 667h-744v744h744z"/><path d="m20763 15941h1411c184 0 333 149 333 333v1411c0 184-149 333-333 333h-1411c-184 0-333-149-333-333v-1411c0-184 149-333 333-333zm1077 667h-744v744h744z"/><path d="m7682 21481h-1411c-184 0-333-149-333-333v-1411c0-184 149-333 333-333h1411c184 0 333 149 333 333v1411c0 184-149 333-333 333zm-1077-667h744v-744h-744z"/><path d="m17140 12478h1411c184 0 333 149 333 333v1411c0 184-149 333-333 333h-1411c-184 0-333-149-333-333v-1411c0-184 149-333 333-333zm1077 667h-744v744h744z"/><path d="m17140 15941h1411c184 0 333 149 333 333v1411c0 184-149 333-333 333h-1411c-184 0-333-149-333-333v-1411c0-184 149-333 333-333zm1077 667h-744v744h744z"/><path d="m11305 21481h-1411c-184 0-333-149-333-333v-1411c0-184 149-333 333-333h1411c184 0 333 149 333 333v1411c0 184-149 333-333 333zm-1077-667h744v-744h-744z"/></g></g></svg>