<svg clip-rule="evenodd" fill-rule="evenodd" height="512" image-rendering="optimizeQuality" shape-rendering="geometricPrecision" text-rendering="geometricPrecision" viewBox="0 0 28444 28444" width="512" xmlns="http://www.w3.org/2000/svg"><g id="Layer_x0020_1"><g id="_229955920" fill-rule="nonzero"><path d="m3931 24901c-184 0-333-149-333-333s149-333 333-333h20583c184 0 333 149 333 333s-149 333-333 333z"/><path d="m4263 24567c0 183-149 332-332 332s-332-149-332-332v-20692c0-183 149-332 332-332s332 149 332 332z"/><path d="m8523 24567c0 184-149 333-333 333s-333-149-333-333v-6041h-1126v6041c0 184-149 333-333 333s-333-149-333-333v-6374c0-184 149-333 333-333h1793c184 0 333 149 333 333v6374z"/><path d="m23418 24567c0 184-149 333-333 333s-333-149-333-333v-13336h-1128v13336c0 184-149 333-333 333s-333-149-333-333v-13670c0-184 149-333 333-333h1795c184 0 333 149 333 333v13670z"/><path d="m16095 24567c0 184-149 333-333 333s-333-149-333-333v-6041h-1126v6041c0 184-149 333-333 333s-333-149-333-333v-6374c0-184 149-333 333-333h1793c184 0 333 149 333 333v6374z"/><path d="m12309 24567c0 184-149 333-333 333s-333-149-333-333v-8581h-1126v8581c0 184-149 333-333 333s-333-149-333-333v-8914c0-184 149-333 333-333h1793c184 0 333 149 333 333v8914z"/><path d="m19756 24567c0 184-149 333-333 333s-333-149-333-333v-10224h-1126v10224c0 184-149 333-333 333s-333-149-333-333v-10557c0-184 149-333 333-333h1793c184 0 333 149 333 333v10557z"/><path d="m7293 15071c340 0 647 138 870 360 223 223 360 530 360 870s-138 647-360 870c-223 223-530 360-870 360s-647-138-870-360c-223-223-360-530-360-870 0-679 551-1230 1230-1230zm398 832c-102-102-243-165-398-165-311 0-563 252-563 563 0 156 63 296 165 398s243 165 398 165c156 0 296-63 398-165s165-243 165-398c0-156-63-296-165-398z"/><path d="m11079 12332c679 0 1230 551 1230 1230s-551 1230-1230 1230-1230-551-1230-1230 551-1230 1230-1230zm563 1230c0-311-252-563-563-563s-563 252-563 563 252 563 563 563 563-252 563-563z"/><path d="m18527 10589c340 0 647 138 870 360 223 223 360 530 360 870s-138 647-360 870c-223 223-530 360-870 360-679 0-1230-551-1230-1230 0-340 138-647 360-870 223-223 530-360 870-360zm398 832c-102-102-243-165-398-165-156 0-296 63-398 165s-165 243-165 398c0 311 252 563 563 563 156 0 296-63 398-165s165-243 165-398c0-156-63-296-165-398z"/><path d="m22187 7602c679 0 1230 551 1230 1230s-551 1230-1230 1230c-340 0-647-138-870-360-223-223-360-530-360-870s138-647 360-870c223-223 530-360 870-360zm563 1230c0-311-252-563-563-563-156 0-296 63-398 165s-165 243-165 398c0 156 63 296 165 398s243 165 398 165c311 0 563-252 563-563z"/><path d="m14865 14822c340 0 647 138 870 360 223 223 360 530 360 870 0 679-551 1230-1230 1230-340 0-647-138-870-360-223-223-360-530-360-870s138-647 360-870c223-223 530-360 870-360zm398 832c-102-102-243-165-398-165-156 0-296 63-398 165s-165 243-165 398c0 156 63 296 165 398s243 165 398 165c311 0 563-252 563-563 0-156-63-296-165-398z"/><path d="m19431 11510c-142 116-352 94-467-48-116-142-94-352 48-467l2271-1854c142-116 352-94 467 48 116 142 94 352-48 467z"/><path d="m15703 15591c-120 139-330 154-469 34s-154-330-34-469l2488-2877c120-139 330-154 469-34s154 330 34 469z"/><path d="m11668 14284c-152-103-191-309-89-461 103-152 309-191 461-89l2269 1539c152 103 191 309 89 461-103 152-309 191-461 89z"/><path d="m8214 16044c-149 108-357 75-465-74s-75-357 74-465l2332-1691c149-108 357-75 465 74s75 357-74 465z"/></g></g></svg>