<svg clip-rule="evenodd" fill-rule="evenodd" height="512" image-rendering="optimizeQuality" shape-rendering="geometricPrecision" text-rendering="geometricPrecision" viewBox="0 0 28444 28444" width="512" xmlns="http://www.w3.org/2000/svg"><g id="Layer_x0020_1"><g id="_225371120" fill-rule="nonzero"><path d="m19458 19135c0-184 149-333 333-333s333 149 333 333v5379c0 184-149 333-333 333h-14062c-184 0-333-149-333-333v-19392c0-184 149-333 333-333h3495c184 0 333 149 333 333s-149 333-333 333h-3161v18725h13396v-5046z"/><path d="m16290 5456c-184 0-333-149-333-333s149-333 333-333h3502c184 0 333 149 333 333v5836c0 184-149 333-333 333s-333-149-333-333v-5503h-3168z"/><path d="m17985 15363c-129-130-129-341 1-470s341-129 470 1l749 757 1921-1941c129-130 340-131 470-1 130 129 131 340 1 470l-2157 2179-1 1c-130 129-341 129-470-1l-985-995z"/><path d="m9671 9274c-184 0-333-149-333-333s149-333 333-333h7737c184 0 333 149 333 333s-149 333-333 333z"/><path d="m8467 8583c196 0 354 160 354 358s-159 358-354 358c-196 0-354-160-354-358s159-358 354-358z"/><path d="m9671 21461c-184 0-333-149-333-333s149-333 333-333h7737c184 0 333 149 333 333s-149 333-333 333z"/><path d="m8467 20770c196 0 354 160 354 358s-159 358-354 358c-196 0-354-160-354-358s159-358 354-358z"/><path d="m9631 19024c-184 0-333-149-333-333s149-333 333-333h7538c184 0 333 149 333 333s-149 333-333 333z"/><path d="m8458 18332c191 0 345 160 345 358s-155 358-345 358c-191 0-345-160-345-358s155-358 345-358z"/><path d="m8467 13458c196 0 354 160 354 358s-159 358-354 358c-196 0-354-160-354-358s159-358 354-358z"/><path d="m9621 11712c-184 0-333-149-333-333s149-333 333-333h7489c184 0 333 149 333 333s-149 333-333 333z"/><path d="m8456 11020c189 0 343 160 343 358s-154 358-343 358-343-160-343-358 154-358 343-358z"/><path d="m9671 14149c-184 0-333-149-333-333s149-333 333-333h6105c184 0 333 149 333 333s-149 333-333 333z"/><path d="m9671 16586c-184 0-333-149-333-333s149-333 333-333h6105c184 0 333 149 333 333s-149 333-333 333z"/><path d="m8467 15895c196 0 354 160 354 358s-159 358-354 358c-196 0-354-160-354-358s159-358 354-358z"/><path d="m19792 18321c-899 0-1713-368-2303-964-589-595-954-1417-954-2323s365-1727 954-2323c590-596 1404-964 2303-964s1713 368 2303 964c589 595 954 1417 954 2323s-365 1727-954 2323c-590 596-1404 964-2303 964zm-1832-1433c469 473 1116 766 1832 766s1363-293 1832-766c469-474 759-1129 759-1854s-290-1381-759-1854-1116-766-1832-766-1363 293-1832 766c-469 474-759 1129-759 1854s290 1381 759 1854z"/><path d="m12162 3597h1196c676 0 921 435 1191 914 134 237 275 489 484 644l1772 1313c147 109 178 317 69 465-65 88-165 134-267 134v1h-7693c-184 0-333-149-333-333 0-119 63-224 157-283l1750-1297c208-154 350-406 484-644 269-479 515-914 1191-914zm1196 667h-1196c-287 0-441 273-610 573-167 297-344 612-669 852l-962 712h5677l-962-712c-324-240-502-555-669-852-169-300-323-573-610-573z"/></g></g></svg>