<svg clip-rule="evenodd" fill-rule="evenodd" height="512" image-rendering="optimizeQuality" shape-rendering="geometricPrecision" text-rendering="geometricPrecision" viewBox="0 0 28444 28444" width="512" xmlns="http://www.w3.org/2000/svg"><g id="Layer_x0020_1"><g id="_225365024" fill-rule="nonzero"><path d="m20377 10713c0 184-149 333-333 333s-333-149-333-333v-2818h-15446v10244h11535c184 0 333 149 333 333s-149 333-333 333h-11868c-184 0-333-149-333-333v-10910c0-184 149-333 333-333h16113c184 0 333 149 333 333v3151z"/><path d="m13175 20882c0 184-149 333-333 333s-333-149-333-333v-2374c0-184 149-333 333-333s333 149 333 333zm-1974-2374c0-184 149-333 333-333s333 149 333 333v2374c0 184-149 333-333 333s-333-149-333-333z"/><path d="m9114 21216c-184 0-333-149-333-333s149-333 333-333h6149c184 0 333 149 333 333s-149 333-333 333z"/><path d="m20899 12888c169 42 334 97 493 163 161 67 316 145 464 234l857-682 233-185 210 210 568 568 210 210-185 233-682 857c89 148 167 303 234 464 66 159 120 324 163 493l1087 123 297 34v297 803 297l-297 34-1087 123c-42 170-97 334-163 493-67 161-145 316-234 464l682 857 185 233-210 210-568 568-210 210-233-185-857-682c-148 89-303 167-464 234-159 66-324 121-493 163l-123 1086-34 297h-297-803-297l-34-297-123-1086c-169-42-334-97-493-163-161-67-316-145-464-234l-857 682-233 185-210-210-568-568-210-210 185-233 682-857c-89-148-167-303-234-464-66-159-120-324-163-493l-1087-123-297-34v-297-803-297l297-34 1087-123c42-170 97-334 163-493 67-161 145-316 234-464l-682-857-185-233 210-210 568-568 210-210 233 185 857 682c148-89 303-167 464-234 159-66 324-121 493-163l123-1086 34-297h297 803 297l34 297zm238 778c-189-78-389-137-599-174l-245-43-28-249-117-1029h-209l-117 1029-28 249-245 43c-209 37-410 95-599 174-195 81-378 182-548 301l-204 143-195-155-812-646-148 148 646 812 155 195-143 204c-119 170-221 353-301 548-79 190-137 390-174 597l-43 246-249 28-1029 117v209l1029 117 249 28 43 246c36 208 95 408 174 597 81 195 182 378 301 548l143 204-155 195-646 812 148 148 812-646 195-155 204 143c170 119 353 221 548 301 189 78 389 137 599 174l245 43 28 249 117 1029h209l117-1029 28-249 245-43c209-37 410-95 599-174 195-81 378-182 548-301l204-143 195 155 812 646 148-148-646-812-155-195 143-204c119-170 221-353 301-548 79-190 137-390 174-597l43-246 249-28 1029-117v-209l-1029-117-249-28-43-246c-36-208-95-408-174-597-81-195-182-378-301-548l-143-204 155-195 646-812-148-148-812 646-195 155-204-143c-170-119-353-221-548-301z"/><path d="m20043 13917c660 0 1258 268 1691 701s701 1031 701 1691-268 1258-701 1691-1031 701-1691 701-1258-268-1691-701-701-1031-701-1691 268-1258 701-1691 1031-701 1691-701zm1220 1172c-312-312-743-505-1220-505-476 0-908 193-1220 505s-505 743-505 1220c0 476 193 908 505 1220s743 505 1220 505c476 0 908-193 1220-505s505-743 505-1220c0-476-193-908-505-1220z"/></g></g></svg>