<svg clip-rule="evenodd" fill-rule="evenodd" height="512" image-rendering="optimizeQuality" shape-rendering="geometricPrecision" text-rendering="geometricPrecision" viewBox="0 0 28444 28444" width="512" xmlns="http://www.w3.org/2000/svg"><g id="Layer_x0020_1"><g id="_225366296" fill-rule="nonzero"><path d="m18262 6970c0 184-149 333-333 333s-333-149-333-333v-2557c0-41-17-78-44-106-27-27-65-44-106-44h-10920c-41 0-78 17-106 44-27 27-44 65-44 106v19617c0 41 17 78 44 106 27 27 65 44 106 44h10920c41 0 78-17 106-44 27-27 44-65 44-106v-5838c0-184 149-333 333-333s333 149 333 333v5838c0 225-92 429-240 577s-352 240-577 240h-10920c-225 0-429-92-577-240s-240-352-240-577v-19617c0-225 92-429 240-577s352-240 577-240h10920c225 0 429 92 577 240s240 352 240 577z"/><path d="m6043 21682c-184 0-333-149-333-333s149-333 333-333h11886c184 0 333 149 333 333s-149 333-333 333z"/><path d="m10971 23328c-184 0-333-149-333-333s149-333 333-333h2029c184 0 333 149 333 333s-149 333-333 333z"/><path d="m17929 7769c1327 0 2529 538 3398 1408 870 870 1408 2071 1408 3398 0 683-144 1335-403 1926-269 613-661 1160-1146 1607-436 402-947 725-1510 945-543 212-1133 329-1748 329-616 0-1205-117-1748-329-563-220-1073-543-1510-945-485-447-877-993-1146-1607-259-591-403-1242-403-1926 0-1327 538-2529 1408-3398 870-870 2071-1408 3398-1408zm2927 1879c-749-749-1784-1212-2927-1212s-2178 463-2927 1212-1212 1784-1212 2927c0 592 123 1153 345 1660 155 354 359 682 602 977 144-376 353-720 613-1018 265-305 582-562 938-759-158-151-295-323-407-512-210-355-330-768-330-1209 0-657 266-1252 697-1682 431-431 1025-697 1682-697s1252 266 1682 697c431 431 697 1025 697 1682 0 441-121 854-330 1209-112 189-249 361-407 512 150 83 293 177 429 280 297 227 555 501 764 810 128 189 238 394 328 612 10 25 20 49 30 74 244-294 447-623 602-977 222-507 345-1068 345-1660 0-1143-463-2178-1212-2927zm-262 6095c-31-121-71-239-118-353-71-171-160-336-265-493-169-251-377-472-616-654-201-153-422-280-660-374-131 61-270 111-415 148-193 49-391 76-591 76s-399-26-591-76c-145-37-284-87-415-148-415 165-782 427-1070 759-276 317-480 697-589 1115 343 289 734 524 1159 690 466 182 973 282 1506 282s1040-100 1506-282c425-166 816-401 1159-690zm-1840-2528c269-148 494-367 651-631 150-254 237-552 237-870 0-473-192-901-502-1211s-738-502-1211-502-901 192-1211 502-502 738-502 1211c0 319 86 616 237 870 156 264 381 483 651 631 126 70 260 123 398 159 133 34 276 52 427 52s294-18 427-52c138-35 272-89 398-159z"/><path d="m11653 5744c-184 0-333-149-333-333s149-333 333-333h667c184 0 333 149 333 333s-149 333-333 333z"/></g></g></svg>