<svg clip-rule="evenodd" fill-rule="evenodd" height="512" image-rendering="optimizeQuality" shape-rendering="geometricPrecision" text-rendering="geometricPrecision" viewBox="0 0 28444 28444" width="512" xmlns="http://www.w3.org/2000/svg"><g id="Layer_x0020_1" fill-rule="nonzero"><path d="m18381 14730c-163-84-227-285-143-448s285-227 448-143c1383 711 2546 1795 3356 3116 783 1278 1235 2777 1235 4375v2884c0 184-149 333-333 333h-16170c-184 0-333-149-333-333v-2884c0-78 2-235 6-352 6-183 159-327 342-322 183 6 327 159 322 342-2 65-3 228-3 331v2550h15503v-2550c0-1473-416-2854-1136-4029-746-1217-1818-2216-3093-2871zm-7726 490c-155 99-361 52-460-103s-52-361 103-460c81-51 170-121 262-192 156-121 318-248 471-326 163-84 364-20 448 143s20 364-143 448c-102 52-237 158-367 259-113 88-222 173-314 231z"/><path d="m14858 3597c1720 0 3277 697 4404 1824s1824 2684 1824 4404-697 3277-1824 4404-2684 1824-4404 1824-3277-697-4404-1824-1824-2684-1824-4404 697-3277 1824-4404 2684-1824 4404-1824zm3933 2296c-1006-1006-2397-1629-3933-1629s-2926 622-3933 1629c-1006 1006-1629 2397-1629 3933s622 2926 1629 3933c1006 1006 2397 1629 3933 1629s2926-622 3933-1629c1006-1006 1629-2397 1629-3933s-622-2926-1629-3933z"/><path d="m8124 14826c816 0 1555 331 2090 866s866 1274 866 2090-331 1555-866 2090-1274 866-2090 866-1555-331-2090-866-866-1274-866-2090 331-1555 866-2090 1274-866 2090-866zm1619 1337c-414-414-987-671-1619-671s-1205 256-1619 671c-414 414-671 987-671 1619s256 1205 671 1619c414 414 987 671 1619 671s1205-256 1619-671c414-414 671-987 671-1619s-256-1205-671-1619z"/><path d="m6837 18115c-184 0-333-149-333-333s149-333 333-333h2575c184 0 333 149 333 333s-149 333-333 333z"/><path d="m8458 19069c0 184-149 333-333 333s-333-149-333-333v-2575c0-184 149-333 333-333s333 149 333 333z"/></g></svg>