<svg clip-rule="evenodd" fill-rule="evenodd" height="512" image-rendering="optimizeQuality" shape-rendering="geometricPrecision" text-rendering="geometricPrecision" viewBox="0 0 28444 28444" width="512" xmlns="http://www.w3.org/2000/svg"><g id="Layer_x0020_1" fill-rule="nonzero"><path d="m4357 4554h19731c209 0 399 85 537 223 137 137 223 327 223 537v14067c0 209-85 399-223 537-137 137-327 223-537 223h-19731c-209 0-399-85-537-223-137-137-223-327-223-537v-14067c0-209 85-399 223-537 137-137 327-223 537-223zm19731 667h-19731c-25 0-48 11-65 27-17 17-27 40-27 65v14067c0 25 11 48 27 65 17 17 40 27 65 27h19731c25 0 48-11 65-27 17-17 27-40 27-65v-14067c0-25-11-48-27-65-17-17-40-27-65-27z"/><path d="m3931 18336c-184 0-333-149-333-333s149-333 333-333h20583c184 0 333 149 333 333s-149 333-333 333z"/><path d="m5779 15132c237 0 452 96 608 252s252 370 252 608c0 237-96 452-252 608s-370 252-608 252c-237 0-452-96-608-252s-252-370-252-608c0-237 96-452 252-608s370-252 608-252zm136 723c-35-35-83-56-136-56s-102 22-136 56c-35 35-56 83-56 136s22 102 56 136c35 35 83 56 136 56s102-22 136-56c35-35 56-83 56-136s-22-102-56-136z"/><path d="m8002 13524c237 0 452 96 608 252s252 370 252 608c0 237-96 452-252 608s-370 252-608 252c-237 0-452-96-608-252s-252-370-252-608c0-237 96-452 252-608s370-252 608-252zm136 723c-35-35-83-56-136-56s-102 22-136 56c-35 35-56 83-56 136s22 102 56 136c35 35 83 56 136 56s102-22 136-56c35-35 56-83 56-136s-22-102-56-136z"/><path d="m12374 12501c237 0 452 96 608 252s252 370 252 608c0 237-96 452-252 608s-370 252-608 252c-237 0-452-96-608-252s-252-370-252-608c0-237 96-452 252-608s370-252 608-252zm136 723c-35-35-83-56-136-56s-102 22-136 56c-35 35-56 83-56 136s22 102 56 136c35 35 83 56 136 56s102-22 136-56c35-35 56-83 56-136s-22-102-56-136z"/><path d="m10225 14986c237 0 452 96 608 252s252 370 252 608c0 237-96 452-252 608s-370 252-608 252c-237 0-452-96-608-252s-252-370-252-608c0-237 96-452 252-608s370-252 608-252zm136 723c-35-35-83-56-136-56s-102 22-136 56c-35 35-56 83-56 136s22 102 56 136c35 35 83 56 136 56s102-22 136-56c35-35 56-83 56-136s-22-102-56-136z"/><path d="m10820 15665c-120 139-330 154-469 34s-154-330-34-469l1461-1689c120-139 330-154 469-34s154 330 34 469z"/><path d="m8270 14921c-152-103-191-309-89-461 103-152 309-191 461-89l1332 904c152 103 191 309 89 461-103 152-309 191-461 89z"/><path d="m6400 15952c-149 108-357 75-465-74s-75-357 74-465l1369-993c149-108 357-75 465 74s75 357-74 465z"/><path d="m22926 19258c-184 0-333-149-333-333s149-333 333-333h43c184 0 333 149 333 333s-149 333-333 333z"/><path d="m13889 4887c0-184 149-333 333-333s333 149 333 333v13116c0 184-149 333-333 333s-333-149-333-333z"/><path d="m3931 11778c-184 0-333-149-333-333s149-333 333-333h20583c184 0 333 149 333 333s-149 333-333 333z"/><path d="m9076 10024c184 0 333 149 333 333s-149 333-333 333c-697 0-1328-283-1785-739-457-457-739-1088-739-1785s283-1328 739-1785c457-457 1088-739 1785-739s1328 283 1785 739c457 457 739 1088 739 1785 0 184-149 333-333 333s-333-149-333-333c0-513-208-978-544-1314s-801-544-1314-544-978 208-1314 544-544 801-544 1314 208 978 544 1314 801 544 1314 544z"/><path d="m9076 7833h2191c184 0 333 149 333 333 0 697-283 1328-739 1785-457 457-1088 739-1785 739-184 0-333-149-333-333v-2191c0-184 149-333 333-333zm1828 667h-1495v1495c379-69 719-253 980-514 262-262 446-601 514-980z"/><path d="m15972 16879c-184 0-333-149-333-333s149-333 333-333h6791c184 0 333 149 333 333s-149 333-333 333z"/><path d="m18004 16546c0 184-149 333-333 333s-333-149-333-333v-2604c0-184 149-333 333-333s333 149 333 333z"/><path d="m23097 16546c0 184-149 333-333 333s-333-149-333-333v-3740c0-184 149-333 333-333s333 149 333 333z"/><path d="m16306 16546c0 184-149 333-333 333s-333-149-333-333v-1927c0-184 149-333 333-333s333 149 333 333z"/><path d="m19701 16546c0 184-149 333-333 333s-333-149-333-333v-3212c0-184 149-333 333-333s333 149 333 333z"/><path d="m21399 16546c0 184-149 333-333 333s-333-149-333-333v-2707c0-184 149-333 333-333s333 149 333 333z"/><path d="m17671 9954c0 184-149 333-333 333s-333-149-333-333v-3671c0-184 149-333 333-333h2019c184 0 333 149 333 333s-149 333-333 333h-1686z"/><path d="m17338 10287c-184 0-333-149-333-333s149-333 333-333h2019c184 0 333 149 333 333s-149 333-333 333z"/><path d="m17338 8452c-184 0-333-149-333-333s149-333 333-333h4061c184 0 333 149 333 333s-149 333-333 333z"/><path d="m17203 22271c-120-139-105-349 34-469s349-105 469 34l1300 1504c120 139 105 349-34 469-63 54-140 81-217 81v1h-9065c-184 0-333-149-333-333 0-93 38-176 99-237l1283-1484c120-139 330-154 469-34s154 330 34 469l-824 953h7610l-824-953z"/><path d="m10998 22349c-184 0-333-149-333-333s149-333 333-333h6448c184 0 333 149 333 333s-149 333-333 333z"/><path d="m14556 22015c0 184-149 333-333 333s-333-149-333-333v-2209c0-184 149-333 333-333s333 149 333 333z"/></g></svg>