<svg clip-rule="evenodd" fill-rule="evenodd" height="512" image-rendering="optimizeQuality" shape-rendering="geometricPrecision" text-rendering="geometricPrecision" viewBox="0 0 28444 28444" width="512" xmlns="http://www.w3.org/2000/svg"><g id="Layer_x0020_1" fill-rule="nonzero"><path d="m7730 4959h12985c335 0 640 137 860 357 221 221 357 525 357 860s-137 640-357 860c-221 221-525 357-860 357h-12985c-335 0-640-137-860-357-221-221-357-525-357-860s137-640 357-860c221-221 525-357 860-357zm12985 667h-12985c-151 0-289 62-389 162s-162 238-162 389 62 289 162 389 238 162 389 162h12985c151 0 289-62 389-162s162-238 162-389-62-289-162-389-238-162-389-162z"/><path d="m13889 11296c0-184 149-333 333-333s333 149 333 333v8983c0 184-149 333-333 333s-333-149-333-333z"/><path d="m17404 11271c14-183 173-321 357-307 183 14 321 173 307 357l-698 8983c-14 183-173 321-357 307-183-14-321-173-307-357z"/><path d="m10376 11321c-14-183 124-343 307-357s343 124 357 307l698 8983c14 183-124 343-307 357s-343-124-357-307z"/><path d="m20639 7042c10-183 167-324 350-314s324 167 314 350l-931 15902c-30 517-245 987-584 1326-334 334-786 541-1300 541h-8533c-513 0-966-207-1300-541-338-338-553-809-584-1326l-931-15902c-10-183 130-340 314-350 183-10 340 130 350 314l931 15902c20 348 164 664 391 891 213 213 502 346 828 346h8533c327 0 615-132 828-346 226-226 371-543 391-891l931-15902z"/><path d="m12194 4959h4057v-319c0-103-42-197-111-265-68-68-162-111-265-111h-3306c-103 0-197 42-265 111-68 68-111 162-111 265v319zm4391 667h-4724c-184 0-333-149-333-333v-652c0-287 117-548 306-736 189-189 449-306 736-306h3306c287 0 548 117 736 306 189 189 306 449 306 736v652c0 184-149 333-333 333z"/></g></svg>