<svg clip-rule="evenodd" fill-rule="evenodd" height="512" image-rendering="optimizeQuality" shape-rendering="geometricPrecision" text-rendering="geometricPrecision" viewBox="0 0 28444 28444" width="512" xmlns="http://www.w3.org/2000/svg"><g id="Layer_x0020_1" fill-rule="nonzero"><path d="m19031 14730c-163-84-227-285-143-448s285-227 448-143c1381 711 2544 1795 3353 3116 782 1278 1234 2777 1234 4375v2884c0 184-149 333-333 333h-16155c-184 0-333-149-333-333v-2884c0-527 44-1018 130-1473 88-465 220-891 394-1278 75-168 271-243 439-168s243 271 168 439c-153 340-269 716-347 1130-77 409-117 859-117 1351v2550h15488v-2550c0-1474-416-2854-1135-4029-745-1217-1816-2216-3090-2871zm-7869 497c-147 110-356 80-466-68-110-147-80-356 68-466 160-120 309-216 463-306 146-85 294-162 461-248 163-84 364-20 448 143s20 364-143 448c-159 82-298 154-432 233-127 74-254 157-398 264z"/><path d="m15512 3597c1718 0 3273 698 4400 1826 1126 1127 1823 2684 1823 4403s-697 3276-1823 4403c-1127 1128-2683 1826-4400 1826-1718 0-3273-698-4400-1826-1126-1127-1823-2684-1823-4403s697-3276 1823-4403c1127-1128 2683-1826 4400-1826zm3929 2294c-1005-1006-2394-1628-3929-1628s-2924 622-3929 1628-1627 2397-1627 3934 622 2928 1627 3934 2394 1628 3929 1628 2924-622 3929-1628 1627-2397 1627-3934-622-2928-1627-3934z"/><path d="m10761 22298-6074-10530c-170-294-204-630-123-934 82-305 279-579 573-749l499-288c7-4 15-8 22-12 289-160 616-191 913-111 305 82 578 279 748 573 4 6 7 12 10 19l6077 10536h1l2 3c92 159 38 362-121 454l-2037 1177c-130 88-307 74-422-41-29-29-51-62-67-97zm-5498-10860 5923 10268 1482-857-5913-10251c-4-6-7-11-11-17-78-135-204-225-344-263-136-37-285-24-416 47-4 3-9 6-13 8l-499 288c-135 78-225 204-263 345-38 142-23 297 55 432z"/><path d="m6143 13627c-159 92-362 38-454-121s-38-362 121-454l2057-1189c159-92 362-38 454 121s38 362-121 454z"/><path d="m5693 12847c-159 92-362 38-454-121s-38-362 121-454l2057-1189c159-92 362-38 454 121s38 362-121 454z"/><path d="m12789 20972c-1-183 147-333 331-333 183-1 333 147 333 331l18 2413 4 586-506-298-2075-1224c-158-93-211-298-117-456 93-158 298-211 456-117l1569 926-13-1827z"/></g></svg>