<svg clip-rule="evenodd" fill-rule="evenodd" height="512" image-rendering="optimizeQuality" shape-rendering="geometricPrecision" text-rendering="geometricPrecision" viewBox="0 0 28444 28444" width="512" xmlns="http://www.w3.org/2000/svg"><g id="Layer_x0020_1" fill-rule="nonzero"><path d="m9177 8322h-2681c-184 0-333-149-333-333 0-93 38-177 100-238l2679-2679c130-130 341-130 471 0 65 65 98 150 98 236v2681c0 184-149 333-333 333zm-1876-667h1543v-1543z"/><path d="m6829 13365c0 184-149 333-333 333s-333-149-333-333v-5376c0-184 149-333 333-333s333 149 333 333z"/><path d="m16949 10141c184 0 333 149 333 333s-149 333-333 333h-7833c-184 0-333-149-333-333s149-333 333-333z"/><path d="m16949 7086c184 0 333 149 333 333s-149 333-333 333h-6083c-184 0-333-149-333-333s149-333 333-333z"/><path d="m23501 12017c0 184-149 333-333 333s-333-149-333-333v-2668c0-130-47-246-122-328-68-74-159-120-257-120h-1220c-184 0-333-149-333-333s149-333 333-333h1220c294 0 559 130 749 339 183 201 297 476 297 776v2668zm-18146-1964c184 0 333 149 333 333s-149 333-333 333c-294 0-564 134-760 350-204 224-331 536-331 881h-1l26 9835c0 183-149 332-332 332s-332-149-332-332l-26-9835h-1c0-516 194-986 506-1329 320-351 763-569 1253-569z"/><path d="m23358 12450h-9102c-104 0-215 46-305 118-82 66-140 146-151 222-79 584-360 1100-777 1468-408 360-943 578-1543 578h-5905c-59 0-141 40-214 100-61 50-107 105-113 150l-962 6746c-7 48-10 98-10 150 0 215 69 405 189 547 119 140 289 236 494 266 41 6 87 9 137 9h16534c290 0 575-121 799-315 227-196 390-463 436-754l1303-8317c8-49 11-101 11-158 0-209-68-394-186-533s-286-235-486-267c-43-7-93-10-151-10zm-9102-667h9102c81 0 165 7 252 21 365 57 674 235 893 493 218 258 345 592 345 962 0 80-7 166-22 259l-1303 8317c-71 453-317 861-657 1155-342 296-781 479-1234 479h-16534c-76 0-153-6-231-17-372-53-687-232-909-495-221-261-348-601-348-977 0-77 6-158 18-244l962-6746c31-221 172-424 353-572 185-151 424-251 633-251h5905c432 0 814-154 1103-409 299-264 501-636 558-1059 34-253 186-486 393-652 202-162 464-267 721-267z"/><path d="m9177 5641c-184 0-333-149-333-333s149-333 333-333h10996c184 0 333 149 333 333v5682c0 184-149 333-333 333s-333-149-333-333v-5349h-10662z"/></g></svg>