<svg clip-rule="evenodd" fill-rule="evenodd" height="512" image-rendering="optimizeQuality" shape-rendering="geometricPrecision" text-rendering="geometricPrecision" viewBox="0 0 28444 28444" width="512" xmlns="http://www.w3.org/2000/svg"><g id="Layer_x0020_1" fill-rule="nonzero"><path d="m17957 23501c-184 0-333-149-333-333s149-333 333-333h2768c130 0 246-47 328-122 74-68 120-159 120-257v-6064c0-427-160-822-427-1139-281-332-678-580-1136-691-152-37-254-173-254-323h-1v-8883c0-294-134-564-350-760-224-204-536-331-881-331h-4930-4693c-184 0-333-149-333-333s149-333 333-333h4693 4930c516 0 986 194 1329 506 351 320 569 763 569 1253v8635c491 167 917 459 1233 833 367 435 586 979 586 1569v6064c0 294-130 559-339 749-201 183-476 297-776 297h-2768z"/><path d="m17624 23358v-16534c0-290-121-575-315-799-196-227-463-390-754-436l-8317-1303c-49-8-101-11-158-11-209 0-394 68-533 186s-235 286-267 486c-7 43-10 93-10 151v16534c0 290 121 575 315 799 196 227 463 390 754 436l8317 1303c49 8 101 11 158 11 209 0 394-68 533-186s235-286 267-486c7-43 10-93 10-151zm667-16534v16534c0 81-7 165-21 252-57 365-235 674-493 893-258 218-592 345-962 345-80 0-166-7-259-22l-8317-1303c-453-71-861-317-1155-657-296-342-479-781-479-1234v-16534c0-81 7-165 21-252 57-365 235-674 493-893 258-218 592-345 962-345 80 0 166 7 260 22l8317 1303c453 71 861 317 1155 657 296 342 479 781 479 1234z"/></g></svg>