<svg clip-rule="evenodd" fill-rule="evenodd" height="512" image-rendering="optimizeQuality" shape-rendering="geometricPrecision" text-rendering="geometricPrecision" viewBox="0 0 28444 28444" width="512" xmlns="http://www.w3.org/2000/svg"><g id="Layer_x0020_1" fill-rule="nonzero"><path d="m21382 9253h-16499c-170 0-325 70-437 182s-182 267-182 437v10878c0 170 70 325 182 437s267 182 437 182h16499c170 0 325-70 437-182s182-267 182-437v-10878c0-170-70-325-182-437s-267-182-437-182zm-16499-667h16499c354 0 676 145 909 378s378 555 378 909v10878c0 354-145 676-378 909s-555 378-909 378h-16499c-354 0-676-145-909-378s-378-555-378-909v-10878c0-354 145-676 378-909s555-378 909-378z"/><path d="m23387 19859c-184 0-333-149-333-333s149-333 333-333h174c170 0 325-70 437-182s182-267 182-437v-10878c0-170-70-325-182-437s-267-182-437-182h-16499c-170 0-325 70-437 182s-182 267-182 437v169c0 184-149 333-333 333s-333-149-333-333v-169c0-354 145-676 378-909s555-378 909-378h16499c354 0 676 145 909 378s378 555 378 909v10878c0 354-145 676-378 909s-555 378-909 378h-174z"/><path d="m16042 20899c-127 132-338 136-470 9s-136-338-9-470l4777-4967c127-132 338-136 470-9s136 338 9 470z"/><path d="m22595 17683c115 143 92 352-51 467s-352 92-467-51l-1756-2189c-115-143-92-352 51-467s352-92 467 51z"/><path d="m16625 19751c112 145 85 354-60 466s-354 85-466-60l-3391-4384c-112-145-85-354 60-466s354-85 466 60z"/><path d="m11536 17479c105 150 68 357-82 462s-357 68-462-82l-2620-3749c-105-150-68-357 82-462s357-68 462 82z"/><path d="m4465 21562c-94 157-298 209-456 115-157-94-209-298-115-456l4464-7472c94-157 298-209 456-115 157 94 209 298 115 456z"/><path d="m11144 18790c-104 152-311 191-462 87-152-104-191-311-87-462l2067-3032c104-152 311-191 462-87 152 104 191 311 87 462z"/><path d="m16500 12003c436 0 831 177 1117 463s463 681 463 1117-177 831-463 1117-681 463-1117 463-831-177-1117-463-463-681-463-1117 177-831 463-1117 681-463 1117-463zm645 934c-165-165-393-267-645-267s-480 102-645 267-267 393-267 645 102 480 267 645 393 267 645 267 480-102 645-267 267-393 267-645-102-480-267-645z"/></g></svg>