<svg clip-rule="evenodd" fill-rule="evenodd" height="512" image-rendering="optimizeQuality" shape-rendering="geometricPrecision" text-rendering="geometricPrecision" viewBox="0 0 28444 28444" width="512" xmlns="http://www.w3.org/2000/svg"><g id="Layer_x0020_1" fill-rule="nonzero"><path d="m5731 9507c0-184 149-333 333-333s333 149 333 333v14674h15649v-14674c0-184 149-333 333-333s333 149 333 333v15007c0 184-149 333-333 333h-16316c-184 0-333-149-333-333v-15007z"/><path d="m14393 3645 9620 5574c159 92 213 296 121 454-62 106-173 166-288 166v1h-19249c-184 0-333-149-333-333 0-132 76-246 187-300l9604-5564c108-63 237-58 338 3zm8215 5528-8386-4859-8386 4859h16771z"/><path d="m15406 24409c0 184-149 333-333 333s-333-149-333-333v-9381c0-184 149-333 333-333h4829c184 0 333 149 333 333v9485c0 184-149 333-333 333s-333-149-333-333v-9152h-4162v9047z"/><path d="m18857 20017c-184 0-333-149-333-333s149-333 333-333h26c184 0 333 149 333 333s-149 333-333 333z"/><path d="m8543 14695h3890c184 0 333 149 333 333v4828c0 184-149 333-333 333h-3890c-184 0-333-149-333-333v-4828c0-184 149-333 333-333zm3557 667h-3224v4161h3224z"/><path d="m10155 15029c0-184 149-333 333-333s333 149 333 333v4828c0 184-149 333-333 333s-333-149-333-333z"/><path d="m8543 17776c-184 0-333-149-333-333s149-333 333-333h3890c184 0 333 149 333 333s-149 333-333 333z"/><path d="m9614 6714c0 184-149 333-333 333s-333-149-333-333v-2722c0-184 149-333 333-333s333 149 333 333zm-2589-2722c0-184 149-333 333-333s333 149 333 333v3846c0 184-149 333-333 333s-333-149-333-333z"/><path d="m6966 4326c-184 0-333-149-333-333s149-333 333-333h2708c184 0 333 149 333 333s-149 333-333 333z"/></g></svg>