<svg clip-rule="evenodd" fill-rule="evenodd" height="512" image-rendering="optimizeQuality" shape-rendering="geometricPrecision" text-rendering="geometricPrecision" viewBox="0 0 28444 28444" width="512" xmlns="http://www.w3.org/2000/svg"><g id="Layer_x0020_1" fill-rule="nonzero"><path d="m3942 24847c-184 0-333-149-333-333s149-333 333-333h20561c184 0 333 149 333 333s-149 333-333 333z"/><path d="m4275 24445c0 184-149 333-333 333s-333-149-333-333v-20514c0-184 149-333 333-333s333 149 333 333z"/><path d="m4563 24651c-97 155-302 203-457 105-155-97-203-302-105-457l4531-7235c97-155 302-203 457-105 155 97 203 302 105 457zm5786-8117c-180 40-358-74-397-254-40-180 74-358 254-397l8107-1786c180-40 358 74 397 254 40 180-74 358-254 397zm9763-3033c-74 168-271 245-439 171s-245-271-171-439l3287-7472c74-168 271-245 439-171s245 271 171 439z"/><path d="m9329 15113c360 0 686 146 922 382s382 562 382 922-146 686-382 922-562 382-922 382-686-146-922-382-382-562-382-922 146-686 382-922 562-382 922-382zm451 853c-115-115-275-187-451-187s-336 71-451 187c-115 115-187 275-187 451s71 336 187 451c115 115 275 187 451 187s336-71 451-187c115-115 187-275 187-451s-71-336-187-451z"/><path d="m19332 12909c360 0 686 146 922 382s382 562 382 922-146 686-382 922-562 382-922 382-686-146-922-382-382-562-382-922 146-686 382-922 562-382 922-382zm451 853c-115-115-275-187-451-187s-336 71-451 187c-115 115-187 275-187 451s71 336 187 451c115 115 275 187 451 187s336-71 451-187c115-115 187-275 187-451s-71-336-187-451z"/><path d="m23492 3687c360 0 686 146 922 382s382 562 382 922-146 686-382 922-562 382-922 382-686-146-922-382-382-562-382-922 146-686 382-922 562-382 922-382zm451 853c-115-115-275-187-451-187s-336 71-451 187c-115 115-187 275-187 451s71 336 187 451c115 115 275 187 451 187s336-71 451-187c115-115 187-275 187-451s-71-336-187-451z"/><path d="m11525 4959c1000 0 1905 405 2560 1060s1060 1560 1060 2560-405 1905-1060 2560-1560 1060-2560 1060-1905-405-2560-1060-1060-1560-1060-2560 405-1905 1060-2560 1560-1060 2560-1060zm2089 1532c-535-535-1273-865-2089-865s-1554 331-2089 865c-535 535-865 1273-865 2089s331 1554 865 2089c535 535 1273 865 2089 865s1554-331 2089-865 865-1273 865-2089-331-1554-865-2089z"/><path d="m11539 8247c183-1 333 146 335 329 1 183-146 333-329 335-325 3-626-111-861-305s-403-469-461-788c-66-362 20-717 214-998s495-487 857-554c362-66 717 20 998 214s487 495 554 857c33 180-86 354-267 387-180 33-354-86-387-267-33-182-137-333-278-430s-319-141-500-108c-182 33-333 137-430 278s-141 319-108 500c29 159 114 297 232 395s269 155 431 154z"/><path d="m10200 9775c-27-182 99-351 281-378s351 99 378 281c27 183 125 337 262 438 137 102 313 151 497 124 183-27 337-125 438-262 102-137 151-313 124-497-24-162-105-304-221-405s-267-163-431-165c-183-2-330-153-328-336s153-330 336-328c327 4 629 127 861 329 232 203 394 485 442 809 54 363-45 715-249 989s-512 471-876 525c-363 54-715-45-989-249s-471-512-525-876z"/><path d="m11192 6205c0-184 149-333 333-333s333 149 333 333v4749c0 184-149 333-333 333s-333-149-333-333z"/></g></svg>