<svg clip-rule="evenodd" fill-rule="evenodd" height="512" image-rendering="optimizeQuality" shape-rendering="geometricPrecision" text-rendering="geometricPrecision" viewBox="0 0 28444 28444" width="512" xmlns="http://www.w3.org/2000/svg"><g id="Layer_x0020_1" fill-rule="nonzero"><path d="m6039 3597h16367c184 0 333 149 333 333v20583c0 184-149 333-333 333h-16367c-184 0-333-149-333-333v-20583c0-184 149-333 333-333zm16033 667h-15700v19917h15700z"/><path d="m17524 19980c-184 0-333-149-333-333s149-333 333-333h3205c184 0 333 149 333 333s-149 333-333 333z"/><path d="m17524 15084c-184 0-333-149-333-333s149-333 333-333h3205c184 0 333 149 333 333s-149 333-333 333z"/><path d="m17524 12636c-184 0-333-149-333-333s149-333 333-333h3205c184 0 333 149 333 333s-149 333-333 333z"/><path d="m17524 22429c-184 0-333-149-333-333s149-333 333-333h3205c184 0 333 149 333 333s-149 333-333 333z"/><path d="m17524 17532c-184 0-333-149-333-333s149-333 333-333h3205c184 0 333 149 333 333s-149 333-333 333z"/><path d="m7715 10032c-184 0-333-149-333-333s149-333 333-333h5056c184 0 333 149 333 333s-149 333-333 333z"/><path d="m7715 7428c-184 0-333-149-333-333s149-333 333-333h5056c184 0 333 149 333 333s-149 333-333 333z"/><path d="m7715 15084c-184 0-333-149-333-333s149-333 333-333h8017c184 0 333 149 333 333s-149 333-333 333z"/><path d="m7715 12636c-184 0-333-149-333-333s149-333 333-333h8017c184 0 333 149 333 333s-149 333-333 333z"/><path d="m7715 17532c-184 0-333-149-333-333s149-333 333-333h8017c184 0 333 149 333 333s-149 333-333 333z"/><path d="m16981 8065c183-1 333 146 335 329 1 183-146 333-329 335-291 2-562-99-772-273s-361-420-414-706c-59-325 18-643 192-895s444-437 768-497c325-59 643 18 895 192s437 444 497 768c33 180-86 354-267 387-180 33-354-86-387-267-26-144-109-264-221-341s-253-112-397-85c-144 26-264 109-341 221s-112 253-85 397c23 126 91 236 185 313 94 78 214 123 342 122z"/><path d="m15777 9387c0-184 149-333 333-333 172 0 314 130 331 298 24 139 101 257 206 335 109 81 249 120 395 98 145-21 267-99 348-208s120-249 98-395c-19-129-83-241-175-322s-212-129-342-131c-183-2-330-153-328-336s153-330 336-328c294 4 564 114 772 295 208 182 354 435 397 725 48 326-40 641-223 887-179 241-447 415-764 468-13 3-26 5-40 6-319 42-627-47-868-226s-415-447-468-764c-5-22-7-46-7-70z"/><path d="m16635 6349c0-184 149-333 333-333s333 149 333 333v4096c0 184-149 333-333 333s-333-149-333-333z"/></g></svg>