<svg clip-rule="evenodd" fill-rule="evenodd" height="512" image-rendering="optimizeQuality" shape-rendering="geometricPrecision" text-rendering="geometricPrecision" viewBox="0 0 28444 28444" width="512" xmlns="http://www.w3.org/2000/svg"><g id="Layer_x0020_1" fill-rule="nonzero"><path d="m3597 23819v-19194c0-283 116-540 302-726s443-302 726-302h19194c283 0 540 116 726 302s302 443 302 726v19194c0 283-116 540-302 726s-443 302-726 302h-19194c-283 0-540-116-726-302s-302-443-302-726zm667-19194v19194c0 99 41 189 106 255 66 66 156 106 255 106h19194c99 0 189-41 255-106 66-66 106-156 106-255v-19194c0-99-41-189-106-255-66-66-156-106-255-106h-19194c-99 0-189 41-255 106-66 66-106 156-106 255z"/><path d="m10799 24514c0 184-149 333-333 333s-333-149-333-333v-20583c0-184 149-333 333-333s333 149 333 333z"/><path d="m18313 24514c0 184-149 333-333 333s-333-149-333-333v-20583c0-184 149-333 333-333s333 149 333 333z"/><path d="m18049 17639c-184 0-333-149-333-333s149-333 333-333h6372c184 0 333 149 333 333s-149 333-333 333z"/><path d="m4046 11472c-184 0-333-149-333-333s149-333 333-333h6385c184 0 333 149 333 333s-149 333-333 333z"/></g></svg>