<svg clip-rule="evenodd" fill-rule="evenodd" height="512" image-rendering="optimizeQuality" shape-rendering="geometricPrecision" text-rendering="geometricPrecision" viewBox="0 0 28444 28444" width="512" xmlns="http://www.w3.org/2000/svg"><g id="Layer_x0020_1"><g id="_229961624" fill-rule="nonzero"><path d="m10825 8232c0 184-149 333-333 333s-333-149-333-333v-4301c0-184 149-333 333-333h11667c184 0 333 149 333 333v20583c0 184-149 333-333 333h-11667c-184 0-333-149-333-333v-4301c0-184 149-333 333-333s333 149 333 333v3968h11000v-19917h-11000z"/><path d="m6286 14556c-184 0-333-149-333-333s149-333 333-333h10612c184 0 333 149 333 333s-149 333-333 333z"/><path d="m12283 19309c-130 130-341 130-471 0s-130-341 0-471l4852-4852c130-130 341-130 471 0s130 341 0 471z"/><path d="m11811 9606c-130-130-130-341 0-471s341-130 471 0l4852 4852c130 130 130 341 0 471s-341 130-471 0z"/></g></g></svg>