<svg clip-rule="evenodd" fill-rule="evenodd" height="512" image-rendering="optimizeQuality" shape-rendering="geometricPrecision" text-rendering="geometricPrecision" viewBox="0 0 28444 28444" width="512" xmlns="http://www.w3.org/2000/svg"><g id="Layer_x0020_1"><g id="_229963376" fill-rule="nonzero"><path d="m18518 15278c135 124 144 335 20 470s-335 144-470 20l-3282-3030-1309 882c-110 77-260 83-378 4l-1235-832-7169 6086h12677c184 0 333 149 333 333s-149 333-333 333h-13441v-1c-183 0-332-149-332-332l10-12189c-1-10-1-19-1-29 0-184 149-333 333-333h18662c184 0 333 149 333 333 0 505 6 1324 13 2409 9 1344 21 3058 29 4726 1 183-147 333-331 333-183 1-333-147-333-331-8-1668-20-3383-29-4726-5-686-9-1283-12-1713l-6921 4663 3166 2922zm3106-7951h-16679l8339 5619 8339-5619zm-17352 350-9 10695 7027-5966z"/><path d="m4330 19187c-140 119-350 101-469-39s-101-350 39-469l7390-6274-7371-4967c-152-103-193-310-90-462s310-193 462-90l8993 6059 8993-6059c152-103 359-63 462 90 103 152 63 359-90 462l-9174 6181c-110 77-260 83-378 4l-1235-832-7533 6396z"/><path d="m22563 16591c47-178 230-283 408-236s283 230 236 408l-705 2632c-3 30-5 96 28 107 105 35 316 8 549-86 201-81 403-211 549-393 404-505 572-1026 554-1507-11-287-88-562-220-812-134-254-325-481-559-669-465-372-1105-593-1835-566-4 0-8 0-12 0v1c-789 0-1503 316-2018 827s-834 1217-834 1997 319 1486 834 1997c516 511 1229 827 2018 827 251 0 497-32 733-94 239-63 469-156 684-278 160-91 363-35 453 125 91 160 35 363-125 453-266 151-550 266-843 343-295 78-599 118-903 118-970 0-1850-391-2487-1022-638-632-1032-1505-1032-2468 0-964 394-1836 1032-2468 637-632 1517-1022 2487-1022v1c890-30 1679 247 2261 712 308 246 558 544 734 877 178 336 282 708 296 1099 23 631-188 1305-700 1945-226 282-525 478-820 596-376 151-767 178-1004 99-131-44-227-111-297-189-123 89-253 159-387 209-312 117-643 125-956 4-438-168-752-540-906-1005-146-439-149-965 26-1472 1-4 12-32 31-82 184-480 499-857 866-1082 391-241 842-314 1267-168 8 3 7 3 45 18 221 85 388 203 521 346l32-120zm-694 2589 424-1583c-57-137-116-261-189-360-79-107-182-194-332-252-15-6 7 3-25-8-227-78-477-33-702 105-249 153-466 415-595 752-1 3-6 17-21 62-127 368-128 742-26 1048 93 280 272 500 513 593 155 60 324 54 487-7 166-62 326-182 465-350z"/></g></g></svg>