<svg clip-rule="evenodd" fill-rule="evenodd" height="512" image-rendering="optimizeQuality" shape-rendering="geometricPrecision" text-rendering="geometricPrecision" viewBox="0 0 28444 28444" width="512" xmlns="http://www.w3.org/2000/svg"><g id="Layer_x0020_1"><g id="_323541536" fill-rule="nonzero"><path d="m20520 21215c185-131 336-305 441-508 100-194 157-415 157-651 0-392-158-747-414-1004s-609-416-1000-416v1c-393 0-747 158-1003 414-256 257-415 612-415 1005 0 236 57 457 157 651 105 203 256 377 441 508 241 171 529 257 818 257s576-86 818-257zm1032-203c-153 297-376 553-647 745-359 255-782 382-1203 382-422 0-845-127-1203-382-271-192-493-448-647-745-148-287-232-613-232-956 0-575 233-1096 610-1474 378-378 899-612 1474-612v1c575 1 1095 234 1471 612 376 377 609 898 609 1472 0 343-84 669-232 956z"/><path d="m13765 12792c-176-52-276-238-224-414s238-276 414-224c762 227 1410 621 1954 1133 591 556 1054 1248 1402 2009 76 167 3 364-164 440s-364 3-440-164c-313-686-727-1307-1253-1801-470-442-1031-783-1688-979zm202 6940c183 0 332 149 332 332s-149 332-332 332l-9671-32c-183 0-332-149-332-332h-1v-1707c0-1312 371-2542 1014-3591 664-1084 1619-1973 2754-2557 163-84 364-20 448 143s20 364-143 448c-1026 528-1890 1332-2491 2312-580 946-915 2058-915 3244v1376l9338 31z"/><path d="m10871 4264c-1232 0-2347 499-3154 1307-807 807-1307 1922-1307 3154s499 2347 1307 3154c807 807 1922 1307 3154 1307s2347-499 3154-1307c807-807 1307-1922 1307-3154s-499-2347-1307-3154c-807-807-1922-1307-3154-1307zm-3626 835c928-928 2210-1502 3626-1502s2698 574 3626 1502 1502 2210 1502 3626-574 2698-1502 3626-2210 1502-3626 1502-2698-574-3626-1502-1502-2210-1502-3626 574-2698 1502-3626z"/><path d="m19500 15931-74 835c-14 163-143 288-300 303-202 39-398 98-587 177-199 83-387 187-563 309-130 91-303 75-415-28l-630-529-280 281 538 645c97 117 101 281 18 401-122 176-225 366-308 566-81 197-143 404-181 618-28 154-157 264-306 273l-823 73v400l831 74c153 13 272 128 298 272 39 214 100 420 181 618 83 200 186 390 308 566 90 130 74 302-29 414l-527 632 280 281 641-539c118-98 283-102 404-18 176 123 365 226 563 309 197 82 403 144 614 182 151 27 260 152 272 298h1l74 835h404l74-835c14-163 143-288 300-303 202-39 398-98 587-177 199-83 387-187 563-309 130-91 303-75 415 28l630 529 280-281-538-645c-97-117-101-281-18-401 122-176 225-366 308-566 81-197 143-404 181-618 28-154 157-264 306-273l823-73v-400l-831-74c-153-13-272-128-298-272-39-214-100-420-181-618-83-200-186-389-308-566-90-130-74-302 29-414l527-632-280-281-641 539c-118 98-283 102-404 18-176-123-365-226-563-309-197-82-403-144-614-182-151-27-260-152-272-298h-1l-74-835zm-716 534 79-891c12-173 156-310 333-310h1014c171 0 317 131 332 305l79 896c173 44 340 100 500 166 164 68 322 148 472 238l687-577c131-110 326-103 449 21l710 712c120 120 130 313 20 446l-576 691c90 152 170 311 238 476 67 162 122 330 166 503l862 77c184 0 333 149 333 333v1007h-1c0 171-130 316-303 331l-891 80c-44 173-99 341-166 503-68 165-148 324-238 476l565 678c120 130 118 333-8 460l-699 701c-119 132-322 147-460 32l-687-577c-150 90-308 169-472 238-160 67-327 122-500 166l-79 891c-12 173-156 310-333 310h-1014c-171 0-317-131-332-305l-79-896c-173-44-340-100-500-166-164-68-322-148-472-238l-687 577c-131 110-326 103-449-21l-710-712c-120-120-130-313-20-446l576-691c-90-152-170-311-238-476-67-162-122-329-166-503l-862-77c-184 0-333-149-333-333v-1007h1c0-171 130-316 303-331l891-80c44-173 99-341 166-503 68-165 148-324 238-476l-565-678c-120-130-118-333 8-460l699-701c119-132 322-147 460-32l687 577c150-90 308-169 472-238 160-67 327-122 500-166z"/></g></g></svg>