<svg clip-rule="evenodd" fill-rule="evenodd" height="512" image-rendering="optimizeQuality" shape-rendering="geometricPrecision" text-rendering="geometricPrecision" viewBox="0 0 28444 28444" width="512" xmlns="http://www.w3.org/2000/svg"><g id="Layer_x0020_1"><g id="_229963664"><circle cx="10616" cy="11259" r="366"/><g fill-rule="nonzero"><path d="m4541 13505h6861c260 0 496 106 666 277 171 171 277 407 277 666v625 625c0 260-106 496-277 666-171 171-407 277-666 277h-6861c-260 0-496-106-666-277-171-171-277-407-277-666v-1250c0-260 106-496 277-666 171-171 407-277 666-277zm6861 667h-6861c-76 0-145 31-195 82-50 50-82 119-82 195v1250c0 76 31 145 82 195 50 50 119 82 195 82h6861c76 0 145-31 195-82 50-50 82-119 82-195v-625-625c0-76-31-145-82-195-50-50-119-82-195-82z"/><path d="m4541 5829h6861c260 0 496 106 666 277 171 171 277 407 277 666v625 625c0 260-106 496-277 666-171 171-407 277-666 277h-6861c-260 0-496-106-666-277-171-171-277-407-277-666v-1250c0-260 106-496 277-666 171-171 407-277 666-277zm6861 667h-6861c-76 0-145 31-195 82-50 50-82 119-82 195v1250c0 76 31 145 82 195 50 50 119 82 195 82h6861c76 0 145-31 195-82 50-50 82-119 82-195v-625-625c0-76-31-145-82-195-50-50-119-82-195-82z"/><path d="m4541 9691h6861c260 0 496 106 666 277 171 171 277 407 277 666v1250c0 260-106 496-277 666-171 171-407 277-666 277h-6861c-260 0-496-106-666-277-171-171-277-407-277-666v-1250c0-260 106-496 277-666 171-171 407-277 666-277zm6861 667h-6861c-76 0-145 31-195 82-50 50-82 119-82 195v1250c0 76 31 145 82 195 50 50 119 82 195 82h6861c76 0 145-31 195-82 50-50 82-119 82-195v-1250c0-76-31-145-82-195-50-50-119-82-195-82z"/><path d="m20858 13152c0 184-149 333-333 333s-333-149-333-333v-1560h-8179c-184 0-333-149-333-333s149-333 333-333h8513c184 0 333 149 333 333v1893z"/><path d="m7638 12555c0-184 149-333 333-333s333 149 333 333v1088c0 184-149 333-333 333s-333-149-333-333z"/><path d="m8304 9720c0 184-149 333-333 333s-333-149-333-333v-1088c0-184 149-333 333-333s333 149 333 333z"/><path d="m12012 7730c-184 0-333-149-333-333s149-333 333-333h3304c184 0 333 149 333 333v7660c0 184-149 333-333 333-9 0-19 0-28-1l-3275 17c-183 1-333-147-333-331-1-183 147-333 331-333l2972-15v-6996h-2971z"/></g><circle cx="10616" cy="7397" r="366"/><circle cx="10616" cy="15074" r="366"/><path d="m20375 14617-64 718c-14 163-143 288-300 303-177 34-350 87-517 156-176 73-343 165-499 274-130 91-303 75-415-28l-540-453-207 208 463 555c97 117 101 281 18 401-108 156-200 324-273 501-72 175-127 358-161 547-28 154-157 264-306 273l-706 63v297l714 64c153 13 272 128 298 272 34 189 88 372 161 547 73 177 165 345 273 501 90 130 74 302-29 414l-452 542 207 208 551-463c118-98 283-102 404-18 156 109 323 201 499 274 175 73 357 127 544 161 151 27 260 152 272 298h1l64 718h300l64-718c14-163 143-288 300-303 177-34 350-87 517-156 176-73 343-165 499-274 130-91 303-75 415 28l540 453 207-208-463-555c-97-117-101-281-18-401 108-156 200-324 273-501 72-175 126-358 161-547 28-154 157-264 306-273l706-63v-297l-714-64c-153-13-272-128-298-272-34-189-88-372-161-547-73-177-165-345-273-501-90-130-74-302 29-414l452-542-207-208-551 463c-118 98-283 102-404 18-156-109-323-201-499-274-175-73-357-127-544-161-151-27-260-152-272-298h-1l-64-718zm-706 418 69-774c12-173 156-310 333-310h910c171 0 317 131 332 305l69 780c148 39 292 87 430 145 141 59 277 127 407 203l598-502c131-110 326-103 449 21l637 639c120 120 130 313 20 446l-501 602c77 131 145 269 204 411 57 139 106 283 145 432l746 67c184 0 333 149 333 333v904h-1c0 171-130 316-303 331l-775 69c-39 149-87 293-145 432-59 142-127 280-204 411l490 588c120 130 118 333-8 460l-626 628c-119 132-322 147-460 32l-598-502c-130 76-266 144-407 203-138 57-281 106-430 145l-69 774c-12 173-156 310-333 310h-910c-171 0-317-131-332-305l-69-780c-148-39-292-87-430-145-141-59-277-127-407-203l-598 502c-131 110-326 103-449-21l-637-639c-120-120-130-313-20-446l501-602c-77-131-145-269-204-411-57-139-106-283-145-432l-746-67c-184 0-333-149-333-333v-904h1c0-171 130-316 303-331l775-69c39-149 87-293 145-432 59-142 127-280 204-411l-490-588c-120-130-118-333 8-460l626-628c119-132 322-147 460-32l598 502c130-76 266-144 407-203 138-57 281-106 430-145z" fill-rule="nonzero"/><path d="m21238 19295c161-114 294-267 385-443 87-169 137-363 137-569 0-343-138-652-361-876s-532-363-872-363v1c-343 0-652 138-875 361-224 224-362 534-362 877 0 206 49 399 137 569 91 177 224 329 385 443 210 150 462 224 714 224s503-75 714-224zm976-139c-140 271-344 505-591 680-328 233-714 349-1099 349s-771-116-1099-349c-247-176-451-409-591-680-136-263-212-560-212-873 0-525 213-1001 557-1346 345-345 821-559 1347-559v1c525 1 1000 214 1344 559s556 820 556 1345c0 314-77 611-212 873z" fill-rule="nonzero"/></g></g></svg>