<svg clip-rule="evenodd" fill-rule="evenodd" height="512" image-rendering="optimizeQuality" shape-rendering="geometricPrecision" text-rendering="geometricPrecision" viewBox="0 0 28444 28444" width="512" xmlns="http://www.w3.org/2000/svg"><g id="Layer_x0020_1"><g id="_323541032" fill-rule="nonzero"><path d="m8743 8384c0-184 149-333 333-333s333 149 333 333v15840c0 184-149 333-333 333s-333-149-333-333z"/><path d="m13889 10173c0-184 149-333 333-333s333 149 333 333v12377c0 184-149 333-333 333s-333-149-333-333z"/><path d="m19036 23766 7-13716c0-183 149-332 332-332s332 149 332 332l-7 13716 2138-696 2342-762v-15150l-3675 1104c-176 52-362-48-414-224s48-362 224-414l4103-1233c176-52 362 48 414 224 9 32 14 64 14 95v15840c0 156-107 286-251 323l-2553 831-2573 837c-70 23-141 21-206 0l-2573-837-2470-804-2470 804-2573 837c-70 23-141 21-206 0l-2573-837-2573-837c-141-46-230-176-230-316h-1v-9891-1036-4912c0-184 149-333 333-333 44 0 85 8 124 24l2552 831 2471 804 3770-1218c175-56 362 40 418 215s-40 362-215 418l-3857 1246c-68 26-146 29-220 5l-2573-837-2137-695v4454 1036 9650l2342 762 2470 804 2470-804 2573-837c65-21 136-23 206 0l2573 837 2138 696z"/><path d="m16795 3887c850 0 1620 345 2177 902s902 1327 902 2177c0 919-1281 2972-2176 4407-256 411-481 771-616 1004-91 159-294 214-453 122-54-31-96-75-124-126-135-233-359-592-614-1001-895-1435-2176-3487-2176-4407 0-850 345-1620 902-2177s1327-902 2177-902zm1706 1373c-437-437-1040-707-1706-707s-1269 270-1706 707-707 1040-707 1706c0 731 1221 2687 2074 4055 121 194 234 376 338 545 104-169 217-351 338-545 853-1368 2074-3324 2074-4055 0-666-270-1269-707-1706z"/><path d="m16795 5146c503 0 958 204 1287 533s533 785 533 1287c0 503-204 958-533 1287s-785 533-1287 533c-503 0-958-204-1287-533s-533-785-533-1287c0-503 204-958 533-1287s785-533 1287-533zm816 1005c-209-209-497-338-816-338s-607 129-816 338-338 497-338 816 129 607 338 816 497 338 816 338 607-129 816-338 338-497 338-816-129-607-338-816z"/></g></g></svg>