<svg clip-rule="evenodd" fill-rule="evenodd" height="512" image-rendering="optimizeQuality" shape-rendering="geometricPrecision" text-rendering="geometricPrecision" viewBox="0 0 28444 28444" width="512" xmlns="http://www.w3.org/2000/svg"><g id="Layer_x0020_1"><g id="_323541824" fill-rule="nonzero"><path d="m6463 17557c571 0 1088 231 1462 606 374 374 606 891 606 1462s-231 1088-606 1462c-374 374-891 606-1462 606s-1088-231-1462-606c-374-374-606-891-606-1462s231-1088 606-1462c374-374 891-606 1462-606zm991 1077c-254-254-604-410-991-410s-737 157-991 410c-254 254-410 604-410 991s157 737 410 991c254 254 604 410 991 410s737-157 991-410c254-254 410-604 410-991s-157-737-410-991z"/><path d="m7076 21629c-181-32-302-204-271-385 32-181 204-302 385-271 609 108 1145 430 1528 886 376 448 604 1025 604 1653v988c0 184-149 333-333 333h-5051c-184 0-333-149-333-333v-988c0-627 227-1204 604-1653 383-456 919-779 1528-886 181-32 354 90 385 271 32 181-90 354-271 385-451 80-848 319-1132 657-279 332-447 760-447 1226v655h4385v-655c0-466-168-893-447-1226-284-338-681-577-1132-657z"/><path d="m6456 3678c571 0 1088 231 1462 606 374 374 606 891 606 1462s-231 1088-606 1462c-374 374-891 606-1462 606s-1088-231-1462-606c-374-374-606-891-606-1462s231-1088 606-1462c374-374 891-606 1462-606zm991 1077c-254-254-604-410-991-410s-737 157-991 410c-254 254-410 604-410 991s157 737 410 991c254 254 604 410 991 410s737-157 991-410c254-254 410-604 410-991s-157-737-410-991z"/><path d="m7069 7674c-181-32-302-204-271-385 32-181 204-302 385-271 609 108 1145 430 1528 886 376 448 604 1025 604 1653v988c0 184-149 333-333 333h-5051c-184 0-333-149-333-333v-988c0-627 227-1204 604-1653 383-456 919-779 1528-886 181-32 354 90 385 271 32 181-90 354-271 385-451 80-848 319-1132 657-279 332-447 760-447 1226v655h4385v-655c0-466-168-893-447-1226-284-338-681-577-1132-657z"/><path d="m21988 17620c571 0 1088 231 1462 606 374 374 606 891 606 1462s-231 1088-606 1462c-374 374-891 606-1462 606s-1088-231-1462-606c-374-374-606-891-606-1462s231-1088 606-1462c374-374 891-606 1462-606zm991 1077c-254-254-604-410-991-410s-737 157-991 410c-254 254-410 604-410 991s157 737 410 991c254 254 604 410 991 410s737-157 991-410c254-254 410-604 410-991s-157-737-410-991z"/><path d="m22601 21630c-181-32-302-204-271-385 32-181 204-302 385-271 609 108 1145 430 1528 886 376 448 604 1025 604 1653v988c0 184-149 333-333 333h-5051c-184 0-333-149-333-333v-988c0-627 227-1204 604-1653 383-456 919-779 1528-886 181-32 354 90 385 271 32 181-90 354-271 385-451 80-848 319-1132 657-279 332-447 760-447 1226v655h4385v-655c0-466-168-893-447-1226-284-338-681-577-1132-657z"/><path d="m21972 3611c571 0 1088 231 1462 606 374 374 606 891 606 1462s-231 1088-606 1462c-374 374-891 606-1462 606s-1088-231-1462-606c-374-374-606-891-606-1462s231-1088 606-1462c374-374 891-606 1462-606zm991 1077c-254-254-604-410-991-410s-737 157-991 410c-254 254-410 604-410 991s157 737 410 991c254 254 604 410 991 410s737-157 991-410c254-254 410-604 410-991s-157-737-410-991z"/><path d="m22584 7607c-181-32-302-204-271-385 32-181 204-302 385-271 609 108 1145 430 1528 886 376 448 604 1025 604 1653v988c0 184-149 333-333 333h-5051c-184 0-333-149-333-333v-988c0-627 227-1204 604-1653 383-456 919-779 1528-886 181-32 354 90 385 271 32 181-90 354-271 385-451 80-848 319-1132 657-279 332-447 760-447 1226v655h4385v-655c0-466-168-893-447-1226-284-338-681-577-1132-657z"/><path d="m13059 13073c351-351 811-526 1270-526 460 0 920 175 1270 526 351 351 526 811 526 1270 0 460-175 920-526 1270-351 351-811 526-1270 526-460 0-920-175-1270-526-351-351-526-811-526-1270 0-460 175-920 526-1270zm1270 140c-289 0-578 110-799 331s-331 510-331 799 110 578 331 799 510 331 799 331 578-110 799-331 331-510 331-799-110-578-331-799-510-331-799-331z"/><path d="m15129 15614c-130-130-130-341 0-471s341-130 471 0l1731 1731c130 130 130 341 0 471s-341 130-471 0z"/><path d="m15600 13544c-130 130-341 130-471 0s-130-341 0-471l1731-1731c130-130 341-130 471 0s130 341 0 471z"/><path d="m13530 13073c130 130 130 341 0 471s-341 130-471 0l-1731-1731c-130-130-130-341 0-471s341-130 471 0z"/><path d="m13059 15142c130-130 341-130 471 0s130 341 0 471l-1731 1731c-130 130-341 130-471 0s-130-341 0-471z"/><path d="m17095 16448c182 0 348 74 467 194 120 120 194 285 194 467s-74 348-194 467c-120 120-285 194-467 194s-348-74-467-194c-120-120-194-285-194-467s74-348 194-467c120-120 285-194 467-194zm4 657-4 4v-5c-1 1-3 1-4 2l4 4-4 4c1 0 3 1 4 2v-5h-5c1 1 1 3 2 4l4-4 4-4c-1 0-3-1-4-2m0 5 4 4c0-1 1-3 2-4h-5zm0 5c1-1 3-1 4-2m-8-8c0 1-1 3-2 4m11 0c-1-1-1-3-2-4"/><path d="m17095 10916c182 0 348 74 467 194 120 120 194 285 194 467s-74 348-194 467c-120 120-285 194-467 194s-348-74-467-194c-120-120-194-285-194-467s74-348 194-467c120-120 285-194 467-194zm4 657-4 4v-5c-1 1-3 1-4 2l4 4-4 4c1 0 3 1 4 2v-5h-5c1 1 1 3 2 4m9-4h-5l4 4c0-1 1-3 2-4zm-9-4c0 1-1 3-2 4m9-4c-1 0-3-1-4-2m5 5c-1-1-1-3-2-4m-4 9c1-1 3-1 4-2"/><path d="m11564 10916c182 0 348 74 467 194 120 120 194 285 194 467s-74 348-194 467c-120 120-285 194-467 194s-348-74-467-194c-120-120-194-285-194-467s74-348 194-467c120-120 285-194 467-194zm4 657-4 4v-5c-1 1-3 1-4 2l4 4-4 4c1 0 3 1 4 2v-5h-5c1 1 1 3 2 4m9-4h-5l4 4c0-1 1-3 2-4zm-9-4c0 1-1 3-2 4m9-4c-1 0-3-1-4-2m5 5c-1-1-1-3-2-4m-4 9c1-1 3-1 4-2"/><path d="m11564 16448c182 0 348 74 467 194 120 120 194 285 194 467s-74 348-194 467c-120 120-285 194-467 194s-348-74-467-194c-120-120-194-285-194-467s74-348 194-467c120-120 285-194 467-194zm4 657-4 4v-5c-1 1-3 1-4 2l4 4-4 4c1 0 3 1 4 2v-5l4 4c-1 0-3 1-4 2m5-5h-5l4 4c0-1 1-3 2-4zm-5 0h-5c1 1 1 3 2 4m0-8 4 4m-4-4c0 1-1 3-2 4m9-4c-1 0-3-1-4-2m5 5c-1-1-1-3-2-4"/></g></g></svg>