<svg clip-rule="evenodd" fill-rule="evenodd" height="512" image-rendering="optimizeQuality" shape-rendering="geometricPrecision" text-rendering="geometricPrecision" viewBox="0 0 28444 28444" width="512" xmlns="http://www.w3.org/2000/svg"><g id="Layer_x0020_1"><g id="_323544248" fill-rule="nonzero"><path d="m3931 7781h20583c184 0 333 149 333 333v12215c0 184-149 333-333 333h-20583c-184 0-333-149-333-333v-12215c0-184 149-333 333-333zm20250 667h-19917v11548h19917z"/><path d="m6230 10858 3340-895c178-47 360 58 408 236l895 3340c47 178-58 360-236 408l-3340 895c-178 47-360-58-408-236l-895-3340c-47-178 58-360 236-408zm3190-166-2696 723 723 2696 2696-723z"/><path d="m12333 11325h3457c184 0 333 149 333 333v3457c0 184-149 333-333 333h-3457c-184 0-333-149-333-333v-3457c0-184 149-333 333-333zm3124 667h-2791v2791h2791z"/><path d="m19269 10079 3278 1099c174 58 268 247 210 421l-1099 3278c-58 174-247 268-421 210l-3278-1099c-174-58-268-247-210-421l1099-3278c58-174 247-268 421-210zm2752 1624-2648-888-888 2648 2648 888z"/><path d="m7623 9896c0-184 149-333 333-333s333 149 333 333v1406c0 184-149 333-333 333s-333-149-333-333z"/><path d="m7426 10114c-184 0-333-149-333-333s149-333 333-333h1060c184 0 333 149 333 333s-149 333-333 333z"/><path d="m13728 10955c0-184 149-333 333-333s333 149 333 333v1406c0 184-149 333-333 333s-333-149-333-333z"/><path d="m13531 11173c-184 0-333-149-333-333s149-333 333-333h1060c184 0 333 149 333 333s-149 333-333 333z"/><path d="m20335 10107c0-184 149-333 333-333s333 149 333 333v1406c0 184-149 333-333 333s-333-149-333-333z"/><path d="m20138 10325c-184 0-333-149-333-333s149-333 333-333h1060c184 0 333 149 333 333s-149 333-333 333z"/></g></g></svg>