<svg clip-rule="evenodd" fill-rule="evenodd" height="512" image-rendering="optimizeQuality" shape-rendering="geometricPrecision" text-rendering="geometricPrecision" viewBox="0 0 28444 28444" width="512" xmlns="http://www.w3.org/2000/svg"><g id="Layer_x0020_1"><g id="_429007440" fill-rule="nonzero"><path d="m11031 5847h5070c132 0 252 54 339 141s141 207 141 339v5070c0 132-54 252-141 339s-207 141-339 141h-5070c-132 0-252-54-339-141s-141-207-141-339v-5070c0-132 54-252 141-339s207-141 339-141zm4883 667h-4696v4696h4696z"/><path d="m17983 9195c-184 0-333-149-333-333s149-333 333-333h4374c184 0 333 149 333 333s-149 333-333 333z"/><path d="m10884 14557c-184 0-333-149-333-333s149-333 333-333h11494c184 0 333 149 333 333s-149 333-333 333z"/><path d="m10884 19920c-184 0-333-149-333-333s149-333 333-333h8593c184 0 333 149 333 333s-149 333-333 333z"/><path d="m17983 11876c-184 0-333-149-333-333s149-333 333-333h4374c184 0 333 149 333 333s-149 333-333 333z"/><path d="m10884 17238c-184 0-333-149-333-333s149-333 333-333h11604c184 0 333 149 333 333s-149 333-333 333z"/><path d="m9002 3597h15368c184 0 333 149 333 333v18130c0 184-149 333-333 333h-15368c-184 0-333-149-333-333v-18130c0-184 149-333 333-333zm15035 667h-14702v17463h14702z"/><path d="m8669 22050c0-184 149-333 333-333s333 149 333 333c0 770-315 1469-821 1976-507 507-1206 821-1976 821s-1469-315-1976-821c-507-507-821-1206-821-1976v-9939c0-184 149-333 333-333h4928c184 0 333 149 333 333s-149 333-333 333h-4595v9606c0 586 240 1118 626 1504s919 626 1504 626c586 0 1118-240 1504-626s626-919 626-1504z"/><path d="m24037 22050c0-184 149-333 333-333s333 149 333 333c0 770-315 1469-821 1976-507 507-1206 821-1976 821-184 0-333-149-333-333s149-333 333-333c586 0 1118-240 1504-626s626-919 626-1504z"/><path d="m6304 24836c-184 0-333-149-333-333s149-333 333-333h15602c184 0 333 149 333 333s-149 333-333 333z"/></g></g></svg>