<svg clip-rule="evenodd" fill-rule="evenodd" height="512" image-rendering="optimizeQuality" shape-rendering="geometricPrecision" text-rendering="geometricPrecision" viewBox="0 0 28444 28444" width="512" xmlns="http://www.w3.org/2000/svg"><g id="Layer_x0020_1"><g id="_429007728" fill-rule="nonzero"><path d="m7067 9603c14 183-123 344-306 358s-344-123-358-306c-2-21-3-40-3-56 0-201 86-381 221-514 128-126 303-209 490-224 22-2 43-3 62-3h4392c184 0 333 149 333 333s-149 333-333 333h-4392c-5 0-8 0-9 0-29 2-56 15-75 34-12 12-20 26-20 40v4zm12622-78c-184 0-333-149-333-333s149-333 333-333h4824c184 0 333 149 333 333 0 33-5 64-13 94-71 351-146 851-232 1420-429 2849-1112 7392-3587 7392h-13624c-184 0-333-149-333-333s149-333 333-333h13624c1902 0 2533-4193 2928-6824 60-398 115-762 170-1082h-4424z"/><path d="m20140 21038c184 0 333 149 333 333s-149 333-333 333h-878c-61 239-185 452-354 621-244 244-582 395-955 395v-1h-5-1c-372-2-707-153-950-397-168-169-292-381-352-619h-6509c-184 0-333-149-333-333s149-333 333-333h6511c61-240 186-454 356-623 244-243 581-394 952-394s707 150 951 394c170 169 295 383 356 623h879zm-1503 319c0-3 0-6 1-9-6-180-82-343-202-462-123-123-294-198-483-198s-360 76-483 199c-119 119-195 281-201 461 1 8 1 16 1 24 0 189 76 360 199 483 123 124 294 201 482 202h3v-1c189 0 360-77 483-200 124-124 200-295 200-483 0-13 0-16 0-14zm-10505-324c183 17 317 178 301 361-17 183-178 317-361 301-546-50-1034-306-1384-689-347-380-560-886-560-1438 0-588 240-1123 628-1510 387-387 922-628 1510-628h11766c184 0 333 149 333 333s-149 333-333 333h-11766c-404 0-772 166-1038 432-267 267-432 634-432 1038 0 380 146 728 385 990 242 265 577 442 952 476z"/><path d="m9118 20032c373 0 710 151 955 395 244 244 395 582 395 955s-151 710-395 955c-244 244-582 395-955 395s-710-151-955-395c-244-244-395-582-395-955s151-710 395-955c244-244 582-395 955-395zm483 867c-124-124-295-200-483-200-189 0-360 77-483 200-124 124-200 295-200 483 0 189 77 360 200 483 124 124 295 200 483 200 189 0 360-77 483-200 124-124 200-295 200-483 0-189-77-360-200-483z"/><path d="m7723 17736c15 183-121 344-305 359-183 15-344-121-359-305l-974-11413h-2154c-184 0-333-149-333-333s149-333 333-333h2460c172 0 318 132 332 306z"/><path d="m15624 5991c909 0 1733 369 2329 965s965 1419 965 2329c0 909-369 1733-965 2329s-1419 965-2329 965c-909 0-1733-369-2329-965s-965-1419-965-2329c0-909 369-1733 965-2329s1419-965 2329-965zm1858 1436c-475-475-1132-769-1858-769-725 0-1382 294-1858 769-475 475-769 1132-769 1858 0 725 294 1382 769 1858 475 475 1132 769 1858 769 725 0 1382-294 1858-769 475-475 769-1132 769-1858 0-725-294-1382-769-1858z"/><path d="m15636 8953c183-1 333 146 335 329 1 183-146 333-329 335-296 3-572-101-786-278s-368-428-421-719c-60-331 19-654 196-910s452-445 782-506c330-60 654 19 910 196s445 452 506 782c4 20 5 40 5 60h1c0 184-149 333-333 333-171 0-312-129-331-294-31-141-114-258-225-334-111-77-249-113-392-92-14 3-28 6-42 8-141 31-258 114-334 225-77 111-113 249-92 392 3 14 6 28 8 42 27 123 95 229 188 305 98 81 223 128 356 127z"/><path d="m14415 10348c-27-182 99-351 281-378s351 99 378 281c22 151 103 278 217 362 113 84 259 125 411 102 151-22 278-103 362-217 84-113 125-259 102-411-20-134-87-251-182-335-96-84-221-135-356-136-183-2-330-153-328-336s153-330 336-328c299 4 574 116 786 300 212 185 360 443 404 738 49 332-41 652-227 903s-467 430-799 480c-332 49-652-41-903-227s-430-467-480-799z"/><path d="m15291 7186c0-184 149-333 333-333s333 149 333 333v4198c0 184-149 333-333 333s-333-149-333-333z"/></g></g></svg>