<svg clip-rule="evenodd" fill-rule="evenodd" height="512" image-rendering="optimizeQuality" shape-rendering="geometricPrecision" text-rendering="geometricPrecision" viewBox="0 0 28444 28444" width="512" xmlns="http://www.w3.org/2000/svg"><g id="Layer_x0020_1"><g id="_429008568" fill-rule="nonzero"><path d="m17390 21831c163-83 363-19 447 145 83 163 19 363-145 447-671 344-1388 612-2139 792-732 176-1492 269-2270 269-2675 0-5096-1084-6849-2837s-2837-4174-2837-6849 1084-5096 2837-6849 4174-2837 6849-2837 5096 1084 6849 2837 2837 4174 2837 6849c0 445-31 887-91 1324-61 444-151 876-269 1296-50 177-233 280-410 230s-280-233-230-410c110-393 194-795 250-1205 55-400 83-812 83-1235 0-2491-1010-4746-2642-6378s-3887-2642-6378-2642-4746 1010-6378 2642-2642 3887-2642 6378 1010 4746 2642 6378 3887 2642 6378 2642c733 0 1441-86 2116-248 698-168 1365-417 1990-737z"/><path d="m16197 20899c103-152 310-193 462-90s193 310 90 462c-469 694-1006 1248-1594 1629-584 378-1214 584-1872 584-1536 0-2911-1114-3890-2914-947-1740-1532-4135-1532-6772 0-2638 586-5032 1532-6772 980-1800 2354-2914 3890-2914s2911 1114 3890 2914c947 1740 1532 4135 1532 6772 0 189-4 397-12 624-8 220-19 426-32 619-13 183-172 322-355 309s-322-172-309-355c15-208 26-407 32-596 6-178 9-378 9-600 0-2528-554-4809-1449-6455-862-1585-2033-2565-3307-2565s-2445 980-3307 2565c-895 1645-1449 3927-1449 6455s554 4809 1449 6455c862 1585 2033 2565 3307 2565 527 0 1036-167 1510-474 510-330 984-822 1404-1444z"/><path d="m3931 14131c-184 0-333-149-333-333s149-333 333-333h18705c184 0 333 149 333 333s-149 333-333 333z"/><path d="m6292 7707c-162-87-222-289-135-451s289-222 451-135c612 331 1558 604 2705 795 1162 194 2525 302 3953 302 1438 0 2810-110 3977-306 1150-194 2097-469 2703-803 161-88 363-30 452 132 88 161 30 363-132 452-671 370-1691 671-2914 876-1207 203-2616 317-4086 317-1460 0-2861-112-4063-313-1217-203-2235-500-2910-866z"/><path d="m6607 20474c-162 87-364 26-451-135-87-162-26-364 135-451 676-366 1693-663 2910-866 1202-201 2603-313 4063-313 359 0 733 8 1116 23 384 15 749 37 1092 64 183 14 320 175 306 358s-175 320-358 306c-360-29-716-51-1066-64-340-13-704-20-1090-20-1429 0-2792 108-3953 302-1147 192-2093 464-2705 795z"/><path d="m17123 16523c602-602 1391-903 2180-903s1578 301 2180 903 903 1391 903 2180-301 1578-903 2180-1391 903-2180 903-1578-301-2180-903-903-1391-903-2180 301-1578 903-2180zm2180-236c-618 0-1237 236-1708 708-472 472-708 1090-708 1708s236 1237 708 1708c472 472 1090 708 1708 708s1237-236 1708-708c472-472 708-1090 708-1708s-236-1237-708-1708c-472-472-1090-708-1708-708z"/><path d="m20968 20925c-130-130-130-341 0-471s341-130 471 0l972 972c130 130 130 341 0 471s-341 130-471 0z"/><path d="m22054 21540c195-195 451-292 707-292s513 97 707 292l1086 1086c195 195 292 451 292 707 0 254-96 508-287 702-3 3-7 7-10 10-194 192-448 287-703 287-256 0-513-97-707-292l-1086-1086c-195-195-292-451-292-707s97-513 292-707zm707 374c-86 0-171 32-236 97s-97 150-97 236 32 171 97 236l1086 1086c65 65 150 97 236 97s171-32 236-97c65-65 97-150 97-236s-32-171-97-236l-1086-1086c-65-65-150-97-236-97z"/></g></g></svg>