<svg clip-rule="evenodd" fill-rule="evenodd" height="512" image-rendering="optimizeQuality" shape-rendering="geometricPrecision" text-rendering="geometricPrecision" viewBox="0 0 28444 28444" width="512" xmlns="http://www.w3.org/2000/svg"><g id="Layer_x0020_1"><g id="_429010296" fill-rule="nonzero"><path d="m8985 3597h10474c238 0 455 97 611 254 157 157 254 373 254 611v19520c0 238-97 455-254 611-157 157-373 254-611 254h-10474c-238 0-455-97-611-254-157-157-254-373-254-611v-19520c0-238 97-455 254-611 157-157 373-254 611-254zm10474 667h-10474c-54 0-104 22-140 59-36 36-59 86-59 140v19520c0 54 22 104 59 140 36 36 86 59 140 59h10474c54 0 104-22 140-59 36-36 59-86 59-140v-19520c0-54-22-104-59-140-36-36-86-59-140-59z"/><path d="m8453 22240c-184 0-333-149-333-333s149-333 333-333h11538c184 0 333 149 333 333s-149 333-333 333z"/><path d="m13331 23519c-184 0-333-149-333-333s149-333 333-333h1783c184 0 333 149 333 333s-149 333-333 333z"/><path d="m13889 5394c-184 0-333-149-333-333s149-333 333-333h667c184 0 333 149 333 333s-149 333-333 333z"/><path d="m14222 10003c361 0 689 147 925 383 237 237 383 564 383 925s-147 689-383 925c-237 237-564 383-925 383s-689-147-925-383c-237-237-383-564-383-925s147-689 383-925c237-237 564-383 925-383zm454 855c-116-116-277-188-454-188s-338 72-454 188-188 277-188 454 72 338 188 454 277 188 454 188 338-72 454-188 188-277 188-454-72-338-188-454z"/><path d="m14542 12540c-181-32-302-204-271-385 32-181 204-302 385-271 377 67 711 245 949 510 231 257 370 592 370 980 0 184-149 333-333 333s-333-149-333-333c0-214-75-396-199-534-138-154-338-258-569-299zm-1393 746c-33 180-206 300-387 267-180-33-300-206-267-387 60-326 220-618 446-842 227-225 520-383 846-441 181-32 354 90 385 271 32 181-90 354-271 385-190 34-361 125-492 256-133 132-226 302-261 491z"/><path d="m14222 8477c783 0 1492 317 2005 830s830 1222 830 2005-317 1492-830 2005-1222 830-2005 830-1492-317-2005-830-830-1222-830-2005 317-1492 830-2005 1222-830 2005-830zm1534 1302c-392-392-935-635-1534-635s-1141 243-1534 635c-392 392-635 935-635 1534s243 1141 635 1534c392 392 935 635 1534 635s1141-243 1534-635c392-392 635-935 635-1534s-243-1141-635-1534z"/><path d="m11526 17546c-184 0-333-149-333-333s149-333 333-333h5393c184 0 333 149 333 333s-149 333-333 333z"/><path d="m12332 16296c-184 0-333-149-333-333s149-333 333-333h3781c184 0 333 149 333 333s-149 333-333 333z"/></g></g></svg>