<svg clip-rule="evenodd" fill-rule="evenodd" height="512" image-rendering="optimizeQuality" shape-rendering="geometricPrecision" text-rendering="geometricPrecision" viewBox="0 0 28444 28444" width="512" xmlns="http://www.w3.org/2000/svg"><g id="Layer_x0020_1"><g id="_429010800" fill-rule="nonzero"><path d="m6865 20831c352 0 670 143 900 373s373 549 373 900c0 352-143 670-373 900s-549 373-900 373c-352 0-670-143-900-373s-373-549-373-900c0-352 143-670 373-900s549-373 900-373zm429 844c-110-110-261-178-429-178-167 0-319 68-429 178s-178 261-178 429c0 167 68 319 178 429s261 178 429 178c167 0 319-68 429-178s178-261 178-429c0-167-68-319-178-429z"/><path d="m7170 23299c-181-32-302-204-271-385 32-181 204-302 385-271 366 65 690 238 921 495 225 250 360 575 360 952 0 184-149 333-333 333s-333-149-333-333c0-203-71-376-188-507-131-146-322-246-541-284zm-1327 709c-33 180-206 300-387 267-180-33-300-206-267-387 59-317 214-600 433-818 220-218 505-372 822-428 181-32 354 90 385 271 32 181-90 354-271 385-181 32-343 119-468 243-126 125-215 287-248 466z"/><path d="m6865 19360c758 0 1443 307 1940 804 496 496 804 1182 804 1940s-307 1443-804 1940c-496 496-1182 804-1940 804s-1443-307-1940-804c-496-496-804-1182-804-1940s307-1443 804-1940c496-496 1182-804 1940-804zm1469 1275c-376-376-895-608-1469-608s-1093 232-1469 608-608 895-608 1469 232 1093 608 1469 895 608 1469 608 1093-232 1469-608 608-895 608-1469-232-1093-608-1469z"/><path d="m21580 20831c352 0 670 143 900 373s373 549 373 900c0 352-143 670-373 900s-549 373-900 373c-352 0-670-143-900-373s-373-549-373-900c0-352 143-670 373-900s549-373 900-373zm429 844c-110-110-261-178-429-178-167 0-319 68-429 178s-178 261-178 429c0 167 68 319 178 429s261 178 429 178c167 0 319-68 429-178s178-261 178-429c0-167-68-319-178-429z"/><path d="m21886 23299c-181-32-302-204-271-385 32-181 204-302 385-271 366 65 690 238 921 495 225 250 360 575 360 952 0 184-149 333-333 333s-333-149-333-333c0-203-71-376-188-507-131-146-322-246-541-284zm-1327 709c-33 180-206 300-387 267-180-33-300-206-267-387 59-317 214-600 433-818 220-218 505-372 822-428 181-32 354 90 385 271 32 181-90 354-271 385-181 32-343 119-468 243-126 125-215 287-248 466z"/><path d="m21580 19360c758 0 1443 307 1940 804 496 496 804 1182 804 1940s-307 1443-804 1940c-496 496-1182 804-1940 804s-1443-307-1940-804c-496-496-804-1182-804-1940s307-1443 804-1940c496-496 1182-804 1940-804zm1469 1275c-376-376-895-608-1469-608s-1093 232-1469 608-608 895-608 1469 232 1093 608 1469 895 608 1469 608 1093-232 1469-608 608-895 608-1469-232-1093-608-1469z"/><path d="m14222 6122c333 0 635 135 853 354 218 218 354 520 354 853s-135 635-354 853c-218 218-520 354-853 354s-635-135-853-354c-218-218-354-520-354-853s135-635 354-853c218-218 520-354 853-354zm382 825c-98-98-233-158-382-158s-284 60-382 158-158 233-158 382 60 284 158 382 233 158 382 158 284-60 382-158 158-233 158-382-60-284-158-382z"/><path d="m14502 8463c-181-32-302-204-271-385 32-181 204-302 385-271 345 61 652 225 870 468 213 237 341 544 341 901 0 184-149 333-333 333s-333-149-333-333c0-183-63-338-169-455-118-132-291-222-490-257zm-1207 640c-33 180-206 300-387 267-180-33-300-206-267-387 55-299 202-567 409-773 208-206 477-351 776-404 181-32 354 90 385 271 32 181-90 354-271 385-163 29-309 107-422 219-114 113-194 259-224 421z"/><path d="m14222 4755c711 0 1354 288 1820 754s754 1109 754 1820-288 1354-754 1820-1109 754-1820 754-1354-288-1820-754-754-1109-754-1820 288-1354 754-1820 1109-754 1820-754zm1349 1225c-345-345-822-559-1349-559s-1004 213-1349 559c-345 345-559 822-559 1349s213 1004 559 1349c345 345 822 559 1349 559s1004-213 1349-559c345-345 559-822 559-1349s-213-1004-559-1349z"/><path d="m8768 3597h10908c184 0 333 149 333 333v6797c0 184-149 333-333 333h-10908c-184 0-333-149-333-333v-6797c0-184 149-333 333-333zm10575 667h-10242v6131h10242z"/><path d="m13889 10728c0-184 149-333 333-333s333 149 333 333v1295c0 184-149 333-333 333s-333-149-333-333z"/><path d="m12046 12356c-184 0-333-149-333-333s149-333 333-333h4352c184 0 333 149 333 333s-149 333-333 333z"/><path d="m13898 13231c42-179 221-290 400-249 179 42 290 221 249 400-322 1382-878 2687-1635 3864-756 1176-1714 2224-2838 3090-145 112-354 85-466-60s-85-354 60-466c1063-819 1969-1810 2685-2924 716-1113 1242-2348 1546-3656z"/><path d="m13898 13382c-42-179 70-358 249-400s358 70 400 249c305 1308 831 2543 1546 3656 716 1113 1622 2104 2685 2924 145 112 172 321 60 466s-321 172-466 60c-1125-867-2082-1914-2838-3090-757-1177-1313-2482-1635-3864z"/><path d="m11263 19740c184 0 333 149 333 333s-149 333-333 333h-1393c-184 0-333-149-333-333v-1393c0-184 149-333 333-333s333 149 333 333v1060z"/><path d="m17181 20407c-184 0-333-149-333-333s149-333 333-333h1060v-1060c0-184 149-333 333-333s333 149 333 333v1393c0 184-149 333-333 333z"/></g></g></svg>