<svg clip-rule="evenodd" fill-rule="evenodd" height="512" image-rendering="optimizeQuality" shape-rendering="geometricPrecision" text-rendering="geometricPrecision" viewBox="0 0 28444 28444" width="512" xmlns="http://www.w3.org/2000/svg"><g id="Layer_x0020_1"><g id="_429013056"><path d="m4264 24184h19917v-19923h-19917zm20250 667h-20583c-184 0-333-149-333-333v-20590c0-184 149-333 333-333h20583c184 0 333 149 333 333v20590c0 184-149 333-333 333z" fill-rule="nonzero"/><path d="m3931 6463c-184 0-333-149-333-333s149-333 333-333h20583c184 0 333 149 333 333s-149 333-333 333z" fill-rule="nonzero"/><circle cx="23115" cy="4979" r="333"/><g fill-rule="nonzero"><path d="m14556 17240c0 184-149 333-333 333s-333-149-333-333v-1509c0-184 149-333 333-333s333 149 333 333z"/><path d="m13889 11205c0-184 149-333 333-333s333 149 333 333v1509c0 184-149 333-333 333s-333-149-333-333z"/><path d="m12324 16592c-130 130-341 130-471 0s-130-341 0-471l1067-1067c130-130 341-130 471 0s130 341 0 471z"/><path d="m16120 11853c130-130 341-130 471 0s130 341 0 471l-1067 1067c-130 130-341 130-471 0s-130-341 0-471z"/><path d="m11205 14556c-184 0-333-149-333-333s149-333 333-333h1509c184 0 333 149 333 333s-149 333-333 333z"/><path d="m17240 13889c184 0 333 149 333 333s-149 333-333 333h-1509c-184 0-333-149-333-333s149-333 333-333z"/><path d="m11853 12324c-130-130-130-341 0-471s341-130 471 0l1067 1067c130 130 130 341 0 471s-341 130-471 0z"/><path d="m16592 16120c130 130 130 341 0 471s-341 130-471 0l-1067-1067c-130-130-130-341 0-471s341-130 471 0z"/></g><circle cx="22060" cy="4979" r="333"/><circle cx="21015" cy="4979" r="333"/></g></g></svg>