<svg clip-rule="evenodd" fill-rule="evenodd" height="512" image-rendering="optimizeQuality" shape-rendering="geometricPrecision" text-rendering="geometricPrecision" viewBox="0 0 28444 28444" width="512" xmlns="http://www.w3.org/2000/svg"><g id="Layer_x0020_1"><g id="_429014280" fill-rule="nonzero"><path d="m7860 14493c0-184 149-333 333-333s333 149 333 333v9267c0 115 47 220 124 297 76 76 181 124 297 124h14235c115 0 220-47 297-124 76-76 124-181 124-297v-15753l-3689-3743h-10966c-115 0-220 47-297 124-76 76-124 181-124 297v364c0 184-149 333-333 333s-333-149-333-333v-364c0-299 122-571 319-768s469-319 768-319h11104v1c86 0 172 33 237 99l3867 3923c70 61 114 151 114 251v15888c0 299-122 571-319 768s-469 319-768 319h-14235c-299 0-571-122-768-319s-319-469-319-768v-9267z"/><path d="m19720 4054c1-183 150-331 333-331 183 1 331 150 331 333l-26 3486 3472 26c183 1 331 150 331 333-1 183-150 331-333 331l-3805-29c-183-1-331-150-331-333l29-3817z"/><path d="m13791 10560c-184 0-333-149-333-333s149-333 333-333h7901c184 0 333 149 333 333s-149 333-333 333z"/><path d="m13836 13320c-184 0-333-149-333-333s149-333 333-333h7856c184 0 333 149 333 333s-149 333-333 333z"/><path d="m9862 16080c-184 0-333-149-333-333s149-333 333-333h11830c184 0 333 149 333 333s-149 333-333 333z"/><path d="m9862 21599c-184 0-333-149-333-333s149-333 333-333h8844c184 0 333 149 333 333s-149 333-333 333z"/><path d="m9862 18839c-184 0-333-149-333-333s149-333 333-333h11943c184 0 333 149 333 333s-149 333-333 333z"/><path d="m8461 9984-2381 2381c622 511 1384 767 2145 767 866 0 1732-330 2393-991s991-1527 991-2393-330-1732-991-2393c-661-661-1527-991-2393-991-762 0-1523 256-2145 767l2381 2381c130 130 130 341 0 471zm-3100 2157 2393-2393-2393-2393c-130-130-130-341 0-471 791-791 1827-1186 2864-1186s2073 395 2864 1186c791 791 1186 1827 1186 2864s-395 2073-1186 2864-1827 1186-2864 1186-2073-395-2864-1186c-130-130-130-341 0-471z"/><path d="m5361 6884c130-130 341-130 471 0s130 341 0 471c-661 661-991 1527-991 2393s330 1732 991 2393c130 130 130 341 0 471s-341 130-471 0c-791-791-1186-1827-1186-2864s395-2073 1186-2864z"/><path d="m8540 9852c-58 174-245 268-419 211-174-58-268-245-211-419l1174-3527c58-174 245-268 419-211 174 58 268 245 211 419z"/></g></g></svg>