<svg clip-rule="evenodd" fill-rule="evenodd" height="512" image-rendering="optimizeQuality" shape-rendering="geometricPrecision" text-rendering="geometricPrecision" viewBox="0 0 28444 28444" width="512" xmlns="http://www.w3.org/2000/svg"><g id="Layer_x0020_1"><g id="_229964888" fill-rule="nonzero"><path d="m21825 8975c-170-13-304-155-305-328-1-183 146-333 329-335l307-3c183-1 333 146 335 329v4l-31 5296c0 91-37 174-97 233l1 1-10577 10577c-130 130-341 130-471 0l-5264-5264c-130-130-130-341 0-471l10577-10577c72-72 168-104 262-97l2808-18c183-1 333 147 333 331 1 183-147 333-331 333l-2697 18-10245 10245 4793 4793 10245-10245 29-4822z"/><path d="m18359 10560c260-260 600-390 941-390 340 0 681 130 941 390s390 600 390 941c0 340-130 681-390 941-260 260-600 390-941 390-340 0-681-130-941-390-260-260-390-600-390-941 0-340 130-681 390-941zm941 277c-170 0-340 65-469 194-130 130-194 299-194 469s65 340 194 469c130 130 299 194 469 194s340-65 469-194c130-130 194-299 194-469s-65-340-194-469c-130-130-299-194-469-194z"/><path d="m20293 10959c-104 151-311 189-462 85s-189-311-85-462c6-8 1989-2801-203-6481-94-157-43-362 115-456 157-94 362-43 456 115 2414 4051 186 7190 180 7199z"/><path d="m15380 13102 918-918-483-483-1449 1449 3381 3381 1449-1449-483-483-918 918-990-990 729-730-483-483-729 730z"/><path d="m16109 18169 1406-1406-483-483-874 874-2898-2898-532 531z"/><path d="m12125 16589 1966 1454-512 512zm-184-1014-778 778 2840 3922 488-488-522-705 652-652 705 522 536-536-3922-2840z"/><path d="m9700 19439c138 137 280 240 424 310 145 69 291 117 438 140 147 24 293 35 439 33 145-2 288-6 427-14 140-8 275-8 406 0 130 6 254 32 372 74 117 43 225 112 324 210 80 80 133 155 159 226s29 137 10 200c-20 62-58 122-115 178-56 57-115 96-178 115s-129 16-200-10-146-78-226-159l-242-242-502 502 208 208c181 181 364 304 550 371s371 75 555 24c184-52 362-164 537-337 173-175 286-353 337-537s43-370-24-555c-67-186-190-369-371-550-138-137-280-240-424-310-145-69-291-117-438-140-147-24-293-35-439-33-145 2-288 6-427 14-140 8-275 8-406 0-130-6-254-32-372-74-117-43-225-113-324-210-119-121-182-229-188-327-6-97 34-188 121-272 84-87 175-126 272-121 98 6 206 69 327 188l140 140 502-502-106-106c-181-181-365-305-549-374-185-68-369-76-551-27-182 50-359 161-532 332-171 173-283 350-332 532-49 183-41 366 27 551 68 184 192 368 374 549z"/></g></g></svg>