<svg clip-rule="evenodd" fill-rule="evenodd" height="512" image-rendering="optimizeQuality" shape-rendering="geometricPrecision" text-rendering="geometricPrecision" viewBox="0 0 28444 28444" width="512" xmlns="http://www.w3.org/2000/svg"><g id="Layer_x0020_1"><g id="_429263328" fill-rule="nonzero"><path d="m15299 5892c-184 0-333-149-333-333s149-333 333-333h7220c624 0 1196 206 1615 537 440 349 714 835 714 1376v15796c0 541-273 1027-714 1376-418 331-990 537-1615 537h-16593c-624 0-1196-206-1615-537-440-349-714-835-714-1376v-15796c0-541 273-1027 714-1376 418-331 990-537 1615-537h7163c184 0 333 149 333 333s-149 333-333 333h-7163c-473 0-899 150-1203 391-283 224-459 527-459 855v15796c0 328 176 631 459 855 305 241 731 391 1203 391h16593c473 0 899-150 1203-391 283-224 459-527 459-855v-15796c0-328-176-631-459-855-305-241-730-391-1203-391z"/><path d="m8727 24181h10991v-5243c0-256-105-488-274-657s-401-274-657-274h-9130c-256 0-488 105-657 274s-274 401-274 657v5243zm11324 667h-11658c-184 0-333-149-333-333v-5577c0-440 180-839 469-1128s689-469 1128-469h9130c440 0 839 180 1128 469s469 689 469 1128v5577c0 184-149 333-333 333z"/><path d="m18450 5558c0-184 149-333 333-333s333 149 333 333v4364c0 364-149 695-388 934s-570 388-934 388h-7145c-364 0-695-149-934-388s-388-570-388-934v-4223c-20-43-31-91-31-141 0-184 149-333 333-333h31c184 0 333 149 333 333v4364c0 180 74 344 193 463s283 193 463 193h7145c180 0 344-74 463-193s193-283 193-463z"/><path d="m10871 24514c0 184-149 333-333 333s-333-149-333-333v-3808c0-184 149-333 333-333s333 149 333 333z"/><path d="m16484 6751c130-130 341-130 471 0s130 341 0 471l-2513 2513c-130 130-341 130-471 0l-2513-2513c-130-130-130-341 0-471s341-130 471 0l2278 2278 2278-2278z"/><path d="m14540 9500c0 184-149 333-333 333s-333-149-333-333v-5570c0-184 149-333 333-333s333 149 333 333z"/></g></g></svg>