<svg clip-rule="evenodd" fill-rule="evenodd" height="512" image-rendering="optimizeQuality" shape-rendering="geometricPrecision" text-rendering="geometricPrecision" viewBox="0 0 28444 28444" width="512" xmlns="http://www.w3.org/2000/svg"><g id="Layer_x0020_1"><g id="_429264168" fill-rule="nonzero"><path d="m11807 11551c-153 58-310 104-472 136-192 38-389 59-592 59-374 0-733-69-1063-194-551 120-1120 444-1576 884-411 396-726 880-850 1385 87 91 177 178 271 261 898 797 2062 1191 3229 1187 1167-5 2334-409 3237-1209 98-87 192-178 284-274-110-558-390-1031-782-1400-442-416-1029-702-1684-833zm-602-518c154-31 302-76 441-135 427-179 789-481 1042-862 246-369 389-813 389-1291 0-644-261-1228-684-1650-422-422-1006-684-1650-684s-1228 261-1650 684c-422 422-684 1006-684 1650s261 1228 684 1650c422 422 1006 684 1650 684 158 0 313-16 461-45zm-2307 78c-97-76-189-157-276-244-543-543-879-1293-879-2122s336-1579 879-2122 1293-879 2122-879 1579 336 2122 879 879 1293 879 2122c0 613-184 1183-501 1659-173 260-385 491-628 685 504 186 958 460 1332 811 535 503 902 1161 1011 1944 15 107-23 209-93 280-138 154-283 298-434 433-1027 911-2352 1371-3674 1376-1324 5-2647-444-3671-1353-153-136-300-282-439-439-69-78-94-178-79-273 117-709 528-1381 1077-1910 369-355 803-648 1255-845z"/><path d="m5696 5773c1399-1399 3232-2098 5066-2098 1833 0 3667 699 5066 2098s2098 3232 2098 5066c0 1833-699 3667-2098 5066-1399 1399-3232 2098-5066 2098-1833 0-3667-699-5066-2098-1399-1399-2098-3232-2098-5066 0-1833 699-3667 2098-5066zm5066-1432c-1663 0-3326 634-4594 1903-1269 1269-1903 2931-1903 4594s634 3326 1903 4594c1269 1269 2931 1903 4594 1903s3326-634 4594-1903c1269-1269 1903-2931 1903-4594s-634-3326-1903-4594c-1269-1269-2931-1903-4594-1903z"/><path d="m23925 23848c170-170 255-395 255-620s-85-450-255-620l-4378-4378c-293-293-636-322-916-201-113 49-219 122-310 213s-164 197-213 312c-2 5-4 9-6 13-113 278-80 614 207 902l4378 4378c170 170 395 255 620 255s450-85 620-255zm471 471c-300 300-696 450-1091 450s-791-150-1091-450l-4378-4378c-510-510-561-1120-349-1630 2-7 5-13 8-20 83-194 205-371 354-520 148-148 326-270 521-354 513-220 1132-175 1648 342l4378 4378c300 300 450 696 450 1091s-150 791-450 1091z"/><path d="m15433 15827c-130-130-130-341 0-471s341-130 471 0l2404 2404c130 130 130 341 0 471s-341 130-471 0z"/></g></g></svg>