<svg clip-rule="evenodd" fill-rule="evenodd" height="512" image-rendering="optimizeQuality" shape-rendering="geometricPrecision" text-rendering="geometricPrecision" viewBox="0 0 28444 28444" width="512" xmlns="http://www.w3.org/2000/svg"><g id="Layer_x0020_1"><g id="_429264768" fill-rule="nonzero"><path d="m3609 10265c0-183 149-332 332-332s332 149 332 332l-10 13096 19919 10c-4-2388-27-6628-44-9656-11-1892-19-3343-19-3451 0-184 149-333 333-333s333 149 333 333c0 574 7 1822 16 3448 18 3173 43 7678 44 9990 0 183-149 332-332 332l-20583-10c-183 0-332-149-332-332l11-13428z"/><path d="m3936 10727c-152-103-193-310-90-462s310-193 462-90l10088 6797c152 103 193 310 90 462s-310 193-462 90z"/><path d="m24113 10175c152-103 359-63 462 90 103 152 63 359-90 462l-10088 6797c-152 103-359 63-462-90-103-152-63-359 90-462z"/><path d="m4348 23642c-140 119-350 101-469-39s-101-350 39-469l8491-7208c140-119 350-101 469 39s101 350-39 469z"/><path d="m24733 23453c138 122 151 332 30 470-122 138-332 151-470 30l-8552-7524c-138-122-151-332-30-470 122-138 332-151 470-30z"/><path d="m3980 10507c-184 0-333-149-333-333s149-333 333-333h9084c184 0 333 149 333 333s-149 333-333 333zm11585 0c-184 0-333-149-333-333s149-333 333-333h8876c184 0 333 149 333 333s-149 333-333 333z"/><path d="m14630 13681c0 184-149 333-333 333s-333-149-333-333v-8940c0-184 149-333 333-333s333 149 333 333z"/><path d="m18619 8592c130 130 130 341 0 471s-341 130-471 0l-4087-4087c-130-130-130-341 0-471s341-130 471 0z"/><path d="m10445 9064c-130 130-341 130-471 0s-130-341 0-471l4087-4087c130-130 341-130 471 0s130 341 0 471z"/></g></g></svg>