<svg clip-rule="evenodd" fill-rule="evenodd" height="512" image-rendering="optimizeQuality" shape-rendering="geometricPrecision" text-rendering="geometricPrecision" viewBox="0 0 28444 28444" width="512" xmlns="http://www.w3.org/2000/svg"><g id="Layer_x0020_1"><g id="_429262152" fill-rule="nonzero"><path d="m16827 20303c168-74 365 2 439 171 74 168-2 365-171 439-276 122-560 227-849 314-207 63-419 117-635 162l-312 2746c-19 170-163 296-331 296v1h-1811c-178 0-324-140-333-316l-310-2727c-461-96-907-235-1334-412-434-180-847-399-1236-653l-2164 1722c-134 106-324 93-442-25l-1281-1281c-126-126-130-328-12-459l1710-2148c-254-389-474-802-653-1236-177-426-315-872-412-1334l-2746-312c-170-19-296-163-296-331h-1v-1811c0-178 140-324 316-333l2727-310c97-461 235-907 412-1334 180-434 399-847 653-1236l-1722-2164c-106-134-93-324 25-442l1281-1281c126-126 328-130 459-12l2148 1710c389-254 802-474 1236-653 427-177 873-316 1334-412l312-2746c19-170 163-296 331-296v-1h1811c178 0 324 140 333 316l310 2727c461 96 907 235 1334 412 434 180 847 399 1236 653l2164-1722c134-106 324-93 442 25l1281 1281c126 126 130 328 12 459l-1710 2148c254 389 474 802 653 1236 177 426 315 872 412 1334l2746 312c170 19 296 163 296 331h1v1811c0 178-140 324-316 333l-2727 310c-55 262-124 519-206 773-110 340-241 665-392 975-81 165-280 234-445 154-165-81-234-280-154-445 141-289 261-585 358-886 97-299 174-609 230-928 24-143 141-258 292-275l2694-306v-1217l-2683-305c-148-12-276-122-302-276-87-500-228-981-418-1437-193-465-435-905-721-1312-86-118-86-283 9-402l1689-2123-861-861-2117 1685c-113 94-279 105-404 16-408-287-849-530-1316-724-456-189-937-330-1439-418-142-25-257-141-273-291l-306-2693h-1217l-304 2678c-9 150-120 280-275 307-501 87-983 229-1439 418-465 193-905 435-1312 721-118 86-283 86-402-9l-2123-1689-861 861 1685 2117c94 113 105 279 16 404-287 408-530 849-724 1316-189 456-330 938-418 1437-24 143-141 258-292 275l-2694 306v1217l2683 305c148 12 276 122 302 276 87 500 228 981 418 1437 193 465 435 905 721 1312 86 118 86 283-9 402l-1689 2123 861 861 2117-1685c113-94 279-105 404-16 408 287 849 530 1316 724 456 189 937 330 1439 418 142 25 257 141 273 291l306 2693h1217l304-2678c9-150 120-280 275-307 272-48 540-111 802-191 267-81 525-176 773-286z"/><path d="m14853 18134c180-35 355 84 389 264 35 180-84 355-264 389-300 57-600 85-895 85-1118 0-2203-393-3063-1078-862-687-1501-1668-1726-2843-58-303-89-616-89-938 0-1341 544-2556 1423-3435s2093-1423 3435-1423c1341 0 2556 544 3435 1423s1423 2093 1423 3435c0 167-9 338-28 512-18 174-45 342-80 506-38 180-215 295-395 257s-295-215-257-395c31-145 54-290 69-435 15-141 22-289 22-444 0-1157-469-2205-1227-2964-758-758-1806-1227-2964-1227-1157 0-2205 469-2964 1227-758 758-1227 1806-1227 2964 0 283 26 555 75 813 193 1011 743 1855 1486 2447 744 593 1682 932 2649 932 258 0 515-24 770-72z"/><path d="m16614 15314-1-1c5 5 9 9 2 2zm-1-1-1-1c-84-81-122-205-89-325 106-387 107-797 5-1185-99-373-295-726-589-1020-251-251-543-430-854-538-64-22-128-42-194-58l560 562c60 60 97 143 97 234l-4 1325c4 90-29 181-98 250l-950 944c-60 60-143 97-234 97l-1325-4c-90 4-181-29-250-98l-550-552c16 64 35 127 57 190 108 311 288 604 539 855 294 294 647 490 1020 589 383 101 787 101 1169 0 115-38 247-11 339 81l3 3 1 1 1 1c-7-7-15-16 1-1l7242 7242c186 186 430 279 674 279s488-93 674-279 279-430 279-674-93-488-279-674l-7242-7242c-19-19-8-8 1-1zm597-345 7116 7116c314 314 471 729 471 1145s-157 831-471 1145-729 471-1145 471-831-157-1145-471l-7116-7116c-442 90-900 77-1336-39-485-128-943-382-1322-761-322-322-554-702-695-1108-147-421-195-867-145-1303 21-183 186-314 368-293 84 10 158 50 210 109l1061 1065 1063 3 755-750 3-1063-1080-1084c-129-130-129-341 1-470 55-55 125-86 197-95 436-50 882-1 1302 145 405 141 785 373 1107 695 379 379 632 837 761 1322 115 436 128 894 39 1336zm-1943 1695c8 8 3 3-2-2 1 1 2 2 2 2z"/><path d="m16727 17247c-130-130-130-341 0-471s341-130 471 0l5956 5956c130 130 130 341 0 471s-341 130-471 0z"/></g></g></svg>