<svg clip-rule="evenodd" fill-rule="evenodd" height="512" image-rendering="optimizeQuality" shape-rendering="geometricPrecision" text-rendering="geometricPrecision" viewBox="0 0 28444 28444" width="512" xmlns="http://www.w3.org/2000/svg"><g id="Layer_x0020_1"><g id="_228932080" fill-rule="nonzero"><path d="m8317 15833c175 54 274 240 220 415s-240 274-415 220c-122-37-220-80-344-141l-658 819c-112 139-312 164-454 61l-1056-768c-146-106-181-309-79-458l531-903c-113-125-219-256-318-392-97-133-188-270-271-411l-1021 278c-178 48-361-57-409-234l-1-2-398-1224c-55-169 33-351 197-414l967-421c-5-44-9-88-12-130-10-131-15-260-15-388 0-122 5-246 14-373 3-35 6-70 9-105l-989-375c-167-63-254-246-199-414l404-1242c56-171 237-266 408-217l1024 226c85-148 177-289 274-423 96-133 199-261 308-384l-581-886c-99-152-59-355 90-457l1050-763c146-106 349-76 459 66l694 783c153-68 310-129 472-182 154-51 313-94 475-130l51-1057c8-178 156-317 332-317v-1h1306c182 0 331 147 333 328l101 1038c166 35 328 79 487 130 157 50 311 109 461 174l663-825c112-139 312-164 454-61l1056 768c149 108 182 316 74 465-6 8-12 15-18 22l-53 69c-112 145-321 172-466 60-73-56-116-137-127-222l-601-437-628 781c-96 119-265 160-407 89-195-98-399-181-612-250-207-67-421-118-639-153-148-22-267-142-282-297l-98-1011h-688l-48 994c-4 157-119 293-279 319-218 36-433 89-642 157-209 69-412 154-609 254v-1c-132 67-297 40-399-76l-675-761-556 404 550 839c84 128 70 301-41 415-154 156-297 325-427 506-129 178-243 363-341 553-65 137-218 216-372 182l-993-220-213 654 921 350c152 49 251 202 227 365-16 107-28 215-36 322-8 104-12 213-12 326 0 117 4 230 13 338 9 114 21 220 36 318 31 150-46 307-193 371l-933 406 212 653 967-263c148-40 309 26 383 168 103 198 219 386 348 561 131 179 275 347 431 503 104 104 129 269 51 402l-516 878 556 404 628-781c96-119 265-160 407-89l80 40c-28-14-44-22 0 0 182 92 287 144 402 180zm-402-179c134 67 49 24 0 0z"/><path d="m9470 14137c182 24 310 190 286 372s-190 310-372 286c-748-98-1437-469-1930-1028-468-531-760-1230-760-2025 0-850 345-1620 902-2177s1327-902 2177-902c124 0 254 9 390 26 130 17 258 41 383 73 178 46 284 227 238 405s-227 284-405 238c-100-26-200-45-300-58-95-12-197-18-307-18-666 0-1269 270-1706 706-437 437-706 1040-706 1706 0 623 228 1170 593 1585 388 441 930 733 1516 810z"/><path d="m18147 8590c238 48 472 109 700 182 227 73 448 158 665 256l916-1140c112-139 312-164 454-61l1381 1003c146 106 181 309 79 458l-736 1251c164 178 317 364 460 559 140 192 270 391 388 595l1410-384c178-48 361 57 409 234l1 2 522 1605c55 169-33 351-197 414l-1337 582c10 82 18 162 24 241 13 168 20 334 20 499 0 158-6 318-18 480-5 71-12 142-19 212l1366 518c167 63 254 246 199 414l-527 1623c-56 171-237 266-408 217l-1418-313c-120 213-250 416-389 609-139 192-288 376-448 552l802 1224c99 152 59 355-90 457l-1374 998c-146 106-349 76-459-66l-961-1085c-218 100-443 188-675 264-223 73-452 134-687 183l-71 1459c-8 178-156 317-332 317v1h-1706c-182 0-331-147-333-328l-140-1439c-238-48-472-109-700-182-227-73-448-158-665-256l-916 1140c-112 139-312 164-454 61l-1381-1003c-146-106-181-309-79-458l736-1251c-164-178-317-364-460-559-140-192-270-391-388-595l-1410 384c-178 48-361-57-409-234l-1-2-522-1605c-55-169 33-351 197-414l1337-582c-10-82-18-162-24-241-13-168-20-334-20-499 0-158 6-318 18-480 5-71 12-142 19-212l-1366-518c-167-63-254-246-199-414l527-1623c56-171 237-266 408-217l1418 313c120-213 250-416 389-609 139-192 288-376 448-552l-802-1224c-99-152-59-355 90-457l1374-998c146-106 349-76 459 66l961 1085c218-100 443-188 675-264 223-73 452-134 687-183l71-1459c8-178 156-317 332-317v-1h1706c182 0 331 147 333 328zm496 815c-276-89-560-157-852-203-148-22-267-142-282-297l-137-1414h-1088l-68 1398c-4 157-119 293-279 319-291 48-576 118-853 209-279 91-550 205-811 338v-1c-132 67-297 40-399-76l-943-1064-880 639 772 1178c84 128 70 301-41 415-205 208-395 432-569 673-172 237-324 484-455 739-65 137-218 216-372 182l-1389-307-336 1035 1300 493c152 49 251 202 227 365-21 143-37 285-48 428-10 139-16 284-16 433 0 154 6 304 17 450 12 151 28 294 48 429 31 151-46 307-193 371l-1304 568 336 1034 1358-370c148-40 309 26 383 168 137 263 292 513 463 746 174 238 366 462 573 669 104 104 129 269 51 402l-722 1227 881 640 881-1097c96-119 265-160 407-89 259 130 531 242 814 333 276 89 560 157 852 203 148 22 267 142 282 297l137 1414h1088l68-1398c4-157 119-293 279-319 291-48 576-118 853-209 279-91 550-205 811-338v1c132-67 297-40 399 76l943 1064 880-639-772-1178c-84-128-70-301 41-415 205-208 395-432 569-673 172-237 324-484 455-739 65-137 218-216 372-182l1389 307 336-1035-1300-493c-152-49-251-202-227-365 21-143 37-285 48-428 10-139 16-284 16-433 0-154-6-304-17-450-12-151-28-294-48-429-31-151 46-307 193-371l1304-568-336-1034-1358 370c-148 40-309-26-383-168-137-263-292-513-463-746-174-238-366-462-573-669-104-104-129-269-51-402l722-1227-881-640-881 1097c-96 119-265 160-407 89-259-130-531-242-814-333z"/><path d="m16880 10966c1083 0 2063 439 2773 1148 710 710 1148 1690 1148 2773s-439 2063-1148 2773c-710 710-1690 1148-2773 1148s-2063-439-2773-1148c-710-710-1148-1690-1148-2773s439-2063 1148-2773c710-710 1690-1148 2773-1148zm2301 1620c-589-589-1403-953-2301-953-899 0-1712 364-2301 953s-953 1403-953 2301c0 899 364 1712 953 2301s1403 953 2301 953c899 0 1712-364 2301-953s953-1403 953-2301c0-899-364-1712-953-2301z"/></g></g></svg>