<svg clip-rule="evenodd" fill-rule="evenodd" height="512" image-rendering="optimizeQuality" shape-rendering="geometricPrecision" text-rendering="geometricPrecision" viewBox="0 0 28444 28444" width="512" xmlns="http://www.w3.org/2000/svg"><g id="Layer_x0020_1"><g id="_228932056" fill-rule="nonzero"><path d="m11324 24514c0 184-149 333-333 333s-333-149-333-333v-7009l-718 9v7000c0 184-149 333-333 333s-333-149-333-333v-7328h1c0-182 146-330 328-332l1355-17c11-1 22-2 34-2 184 0 333 149 333 333v7345z"/><path d="m18556 24514c0 184-149 333-333 333s-333-149-333-333v-11199c0-184 149-333 333-333 10 0 20 0 29 1l1355-1c183 0 332 149 332 332h1v11200c0 184-149 333-333 333s-333-149-333-333v-10867l-718 1v10867z"/><path d="m5631 24514c0 184-149 333-333 333s-333-149-333-333v-9606c0-184 149-333 333-333 10 0 20 0 31 1l1354 5c183 0 332 149 332 332h1v9602c0 184-149 333-333 333s-333-149-333-333v-9271l-718-2v9273z"/><path d="m24298 24511c0 183-149 332-332 332s-332-149-332-332l-26-12644-744-1v12648c0 184-149 333-333 333s-333-149-333-333v-12980h1c0-183 149-332 332-332l1409 2c183 0 332 149 332 332l26 12976z"/><path d="m15632 24448c0 184-149 333-333 333s-333-149-333-333v-8488l-720 4-10 8550c0 183-149 332-332 332s-332-149-332-332l10-8881c0-183 148-331 331-332l1355-8c10-1 21-1 31-1 184 0 333 149 333 333v8822z"/><path d="m4866 12301c-145-112-172-321-60-466s321-172 466-60l453 351c145 112 172 321 60 466s-321 172-466 60zm1756 1183c-155-99-200-304-102-458 99-155 304-200 458-102l2835 1809c155 99 200 304 102 458-99 155-304 200-458 102zm4480 1963c-170 68-364-14-432-185-68-170 14-364 185-432l2865-1151c170-68 364 14 432 185 68 170-14 364-185 432zm4248-1939c-146 111-355 83-466-63s-83-355 63-466l2720-2083c146-111 355-83 466 63s83 355-63 466zm3922-2605c-181 30-353-92-383-273s92-353 273-383l3172-529c181-30 353 92 383 273s-92 353-273 383zm4665-778c-181 30-353-92-383-273s92-353 273-383l530-88c181-30 353 92 383 273s-92 353-273 383z"/><path d="m10275 14330c301 0 574 122 772 320 197 197 320 470 320 772 0 301-122 574-320 772-197 197-470 320-772 320-301 0-574-122-772-320-197-197-320-470-320-772 0-301 122-574 320-772 197-197 470-320 772-320zm300 791c-77-77-183-124-300-124s-223 48-300 124c-77 77-124 183-124 300s48 223 124 300c77 77 183 124 300 124s223-48 300-124c77-77 124-183 124-300s-48-223-124-300z"/><path d="m14546 12613c301 0 574 122 772 320 197 197 320 470 320 772 0 301-122 574-320 772-197 197-470 320-772 320-301 0-574-122-772-320-197-197-320-470-320-772 0-301 122-574 320-772 197-197 470-320 772-320zm300 791c-77-77-183-124-300-124s-223 48-300 124c-77 77-124 183-124 300s48 223 124 300c77 77 183 124 300 124s223-48 300-124c77-77 124-183 124-300s-48-223-124-300z"/><path d="m6161 11705c301 0 574 122 772 320 197 197 320 470 320 772 0 301-122 574-320 772-197 197-470 320-772 320-301 0-574-122-772-320-197-197-320-470-320-772 0-301 122-574 320-772 197-197 470-320 772-320zm300 791c-77-77-183-124-300-124s-223 48-300 124c-77 77-124 183-124 300s48 223 124 300c77 77 183 124 300 124s223-48 300-124c77-77 124-183 124-300s-48-223-124-300z"/><path d="m18469 9608c301 0 574 122 772 320 197 197 320 470 320 772 0 301-122 574-320 772-197 197-470 320-772 320-301 0-574-122-772-320-197-197-320-470-320-772 0-301 122-574 320-772 197-197 470-320 772-320zm300 791c-77-77-183-124-300-124s-223 48-300 124c-77 77-124 183-124 300s48 223 124 300c77 77 183 124 300 124s223-48 300-124c77-77 124-183 124-300s-48-223-124-300z"/><path d="m3608 3931c0-184 149-333 333-333s333 149 333 333v20250h20229c184 0 333 149 333 333s-149 333-333 333h-20563c-184 0-333-149-333-333v-20583z"/><path d="m23142 8870c301 0 574 122 772 320 197 197 320 470 320 772 0 301-122 574-320 772-197 197-470 320-772 320-301 0-574-122-772-320-197-197-320-470-320-772 0-301 122-574 320-772 197-197 470-320 772-320zm300 791c-77-77-183-124-300-124s-223 48-300 124c-77 77-124 183-124 300s48 223 124 300c77 77 183 124 300 124s223-48 300-124c77-77 124-183 124-300s-48-223-124-300z"/></g></g></svg>