<svg clip-rule="evenodd" fill-rule="evenodd" height="512" image-rendering="optimizeQuality" shape-rendering="geometricPrecision" text-rendering="geometricPrecision" viewBox="0 0 28444 28444" width="512" xmlns="http://www.w3.org/2000/svg"><g id="Layer_x0020_1"><g id="_228933616" fill-rule="nonzero"><path d="m24059 8971c178-47 360 59 406 237 47 178-59 360-237 406l-564 149c-10 327-147 622-363 838-224 224-534 363-877 363-128 0-254-21-375-59-124-40-239-97-341-170-114-81-213-180-294-294-17-24-33-48-48-73l-2171 572c-178 47-360-59-406-237-47-178 59-360 237-406l2159-569v-4c0-342 139-652 363-877 224-224 534-363 877-363 289 0 555 99 767 266 127 100 234 225 314 367l554-146zm-6691 2292c129-130 340-131 470-1 130 129 131 340 1 470l-2959 2986c-129 130-340 131-470 1-130-129-131-340-1-470zm-4229 3553c183 2 330 153 328 336s-153 330-336 328l-2379-33c-183-2-330-153-328-336s153-330 336-328zm-4215 581c143-115 352-92 467 51s92 352-51 467l-2111 1700c7 19 14 39 20 59 37 118 57 242 57 370 0 342-139 652-363 877-224 224-534 363-877 363-174 0-342-37-495-104-60-26-117-57-172-91l-1222 984c-143 115-352 92-467-51s-92-352 51-467l1194-961c-16-32-30-64-43-97-55-141-86-294-86-452 0-342 139-652 363-877 224-224 534-363 877-363 205 0 400 51 573 142 71 37 138 81 200 130l2085-1679zm-2386 2320c-3-4-6-9-9-13-52-71-120-129-198-170s-168-63-265-63c-158 0-302 64-405 168-104 104-168 247-168 405 0 75 14 146 39 210 26 66 64 126 110 177l4 4v1c54 57 118 104 190 135 69 30 146 46 229 46 158 0 302-64 405-168 104-104 168-247 168-405 0-61-9-119-26-172-17-55-43-107-76-155zm16243-8443c-97-77-221-123-355-123-158 0-302 64-405 168-104 104-168 247-168 405 0 31 2 58 5 81 3 24 9 50 17 78 18 63 46 121 82 172 38 53 84 100 137 137 48 34 101 61 156 79 52 17 111 26 175 26 158 0 302-64 405-168 104-104 168-247 168-405 0-44 1-16 1 0v-2-3c0-16-2-38-5-66-2-20-6-42-12-64-30-127-103-238-202-316zm219 451v-1c0 9 0 15 0 2z"/><path d="m14041 13920c342 0 652 139 877 363 224 224 363 534 363 877 0 342-139 652-363 877-224 224-534 363-877 363-342 0-652-139-877-363-224-224-363-534-363-877 0-342 139-652 363-877 224-224 534-363 877-363zm405 835c-104-104-247-168-405-168s-302 64-405 168c-104 104-168 247-168 405s64 302 168 405c104 104 247 168 405 168s302-64 405-168c104-104 168-247 168-405s-64-302-168-405z"/><path d="m18233 9606c342 0 652 139 877 363 224 224 363 534 363 877 0 342-139 652-363 877-224 224-534 363-877 363-342 0-652-139-877-363-224-224-363-534-363-877 0-342 139-652 363-877 224-224 534-363 877-363zm405 835c-104-104-247-168-405-168s-302 64-405 168c-104 104-168 247-168 405s64 302 168 405c104 104 247 168 405 168s302-64 405-168c104-104 168-247 168-405s-64-302-168-405z"/><path d="m9849 13863c342 0 652 139 877 363 224 224 363 534 363 877 0 342-139 652-363 877-224 224-534 363-877 363-342 0-652-139-877-363-224-224-363-534-363-877 0-342 139-652 363-877 224-224 534-363 877-363zm405 835c-104-104-247-168-405-168s-302 64-405 168c-104 104-168 247-168 405s64 302 168 405c104 104 247 168 405 168s302-64 405-168c104-104 168-247 168-405s-64-302-168-405z"/><path d="m3600 3931c0-184 149-333 333-333s333 149 333 333v20250h20244c184 0 333 149 333 333s-149 333-333 333h-20577c-184 0-333-149-333-333z"/><path d="m6277 24514c0 184-149 333-333 333s-333-149-333-333v-532c0-184 149-333 333-333s333 149 333 333z"/><path d="m23064 24514c0 184-149 333-333 333s-333-149-333-333v-532c0-184 149-333 333-333s333 149 333 333z"/><path d="m18872 24514c0 184-149 333-333 333s-333-149-333-333v-532c0-184 149-333 333-333s333 149 333 333z"/><path d="m14680 24514c0 184-149 333-333 333s-333-149-333-333v-532c0-184 149-333 333-333s333 149 333 333z"/><path d="m10488 24514c0 184-149 333-333 333s-333-149-333-333v-532c0-184 149-333 333-333s333 149 333 333z"/><path d="m4465 22282c184 0 333 149 333 333s-149 333-333 333h-532c-184 0-333-149-333-333s149-333 333-333z"/><path d="m4465 5495c184 0 333 149 333 333s-149 333-333 333h-532c-184 0-333-149-333-333s149-333 333-333z"/><path d="m4465 9687c184 0 333 149 333 333s-149 333-333 333h-532c-184 0-333-149-333-333s149-333 333-333z"/><path d="m4465 13879c184 0 333 149 333 333s-149 333-333 333h-532c-184 0-333-149-333-333s149-333 333-333z"/><path d="m4465 18071c184 0 333 149 333 333s-149 333-333 333h-532c-184 0-333-149-333-333s149-333 333-333z"/></g></g></svg>