<svg clip-rule="evenodd" fill-rule="evenodd" height="512" image-rendering="optimizeQuality" shape-rendering="geometricPrecision" text-rendering="geometricPrecision" viewBox="0 0 28444 28444" width="512" xmlns="http://www.w3.org/2000/svg"><g id="Layer_x0020_1"><g id="_228935968" fill-rule="nonzero"><path d="m6884 13956c0 184-149 333-333 333s-333-149-333-333c0-118 4-1177 13-2112 4-477 10-862 16-936 174-2056 1125-3890 2560-5207 1423-1306 3320-2104 5403-2104 2090 0 3993 803 5417 2117 1436 1325 2385 3169 2549 5233 6 70 10 448 14 917 8 938 12 1983 12 2091 0 184-149 333-333 333s-333-149-333-333c0-159-3-1360-9-2086-4-440-8-797-14-870-150-1893-1020-3582-2335-4796-1305-1204-3050-1940-4966-1940-1910 0-3649 730-4952 1927-1315 1207-2187 2888-2346 4772-7 79-12 441-16 887-7 744-10 1941-10 2107z"/><path d="m6245 11269h-363c-105 0-201 43-271 113s-113 166-113 271v1787c0 105 43 201 113 271s166 113 271 113h363zm-363-667h696c184 0 333 149 333 333v3222c0 184-149 333-333 333h-696c-289 0-552-118-742-308s-308-453-308-742v-1787c0-289 118-552 308-742s453-308 742-308z"/><path d="m21866 10602h696c289 0 552 118 742 308s308 453 308 742v1787c0 289-118 552-308 742s-453 308-742 308h-696c-184 0-333-149-333-333v-3222c0-184 149-333 333-333zm696 667h-363v2555h363c105 0 201-43 271-113s113-166 113-271v-1787c0-105-43-201-113-271s-166-113-271-113z"/><path d="m22272 13994c90-160 293-217 453-128 160 90 217 293 128 453-112 199-194 382-269 549-335 747-559 1244-1792 1220h-2l-5069-69c-183-2-330-153-328-336s153-330 336-328l5070 69h5c793 16 945-321 1172-827 84-187 176-392 295-604z"/><path d="m15726 14945c205 0 391 83 526 218s218 320 218 526c0 205-83 391-218 526s-320 218-526 218c-205 0-391-83-526-218s-218-320-218-526c0-205 83-391 218-526s320-218 526-218zm54 689c-14-14-33-22-54-22s-40 9-54 22c-14 14-22 33-22 54s9 40 22 54c14 14 33 22 54 22s40-9 54-22c14-14 22-33 22-54s-9-40-22-54z"/><path d="m11455 18493c184 0 333 149 333 333s-149 333-333 333c-1472 0-2811 603-3781 1573-897 897-1479 2108-1563 3448h16223c-83-1340-666-2551-1563-3448-971-971-2309-1573-3781-1573-184 0-333-149-333-333s149-333 333-333c1656 0 3162 677 4253 1769 1091 1091 1769 2597 1769 4253 0 184-149 333-333 333h-16910c-184 0-333-149-333-333 0-1656 677-3162 1769-4253 1091-1091 2597-1769 4253-1769z"/><path d="m18482 16490c98-155 303-202 458-104s202 303 104 458c-613 972-1372 1824-2231 2416-792 546-1668 873-2592 873-1690 0-3217-1092-4361-2619-1292-1724-2105-4018-2105-5897 0-1785 724-3402 1894-4572s2787-1894 4572-1894 3402 724 4572 1894 1894 2787 1894 4572c0 482-54 992-155 1514-102 527-254 1064-448 1593-63 173-254 261-427 198s-261-254-198-427c182-497 324-999 419-1489 93-478 142-946 142-1389 0-1601-649-3051-1698-4101-1049-1049-2499-1698-4101-1698-1601 0-3051 649-4101 1698-1049 1049-1698 2499-1698 4101 0 1747 760 3886 1969 5499 1027 1370 2372 2350 3830 2350 782 0 1530-282 2214-753 781-539 1478-1323 2046-2223z"/></g></g></svg>