<svg clip-rule="evenodd" fill-rule="evenodd" height="512" image-rendering="optimizeQuality" shape-rendering="geometricPrecision" text-rendering="geometricPrecision" viewBox="0 0 28444 28444" width="512" xmlns="http://www.w3.org/2000/svg"><g id="Layer_x0020_1"><g id="_228929632" fill-rule="nonzero"><path d="m21340 24847h-14235c-299 0-571-122-768-319s-319-469-319-768v-15888c0-100 44-190 114-251l3867-3923c65-66 151-99 237-99v-1h11104c299 0 571 122 768 319s319 469 319 768v1366 7394 10315c0 299-122 571-319 768s-469 319-768 319zm-14235-667h14235c115 0 220-47 297-124 76-76 124-181 124-297v-10315-7394-1366c0-115-47-220-124-297-76-76-181-124-297-124h-10966l-3689 3743v15753c0 115 47 220 124 297 76 76 181 124 297 124z"/><path d="m9903 4056c-1-183 147-333 331-333 183-1 333 147 333 331l29 3817c1 183-147 333-331 333l-3805 29c-183 1-333-147-333-331-1-183 147-333 331-333l3472-26-26-3486z"/><path d="m19816 19121v-11972c0-153-63-292-164-393s-240-164-393-164h-249c-153 0-292 63-393 164s-164 240-164 393v11972zm667-11972v12306c0 184-149 333-333 333h-2030c-184 0-333-149-333-333v-12306c0-337 138-643 359-865 222-222 528-359 865-359h249c337 0 643 138 865 359 222 222 359 528 359 865z"/><path d="m19988 7607c184 0 333 149 333 333s-149 333-333 333h-1709c-184 0-333-149-333-333s149-333 333-333z"/><path d="m17831 19621c-92-159-38-362 121-454s362-38 454 121l727 1260 727-1260c92-159 296-213 454-121 159 92 213 296 121 454l-1013 1754c-28 50-70 94-124 125-159 92-362 38-454-121l-1015-1758z"/><path d="m16131 15413c184 0 333 149 333 333s-149 333-333 333h-4871c-184 0-333-149-333-333s149-333 333-333z"/><path d="m16131 12653c184 0 333 149 333 333s-149 333-333 333h-4871c-184 0-333-149-333-333s149-333 333-333z"/><path d="m16131 9894c184 0 333 149 333 333s-149 333-333 333h-4871c-184 0-333-149-333-333s149-333 333-333z"/><path d="m19099 20932c184 0 333 149 333 333s-149 333-333 333h-7826c-184 0-333-149-333-333s149-333 333-333z"/><path d="m16131 18172c184 0 333 149 333 333s-149 333-333 333h-4984c-184 0-333-149-333-333s149-333 333-333z"/><path d="m8295 9088h1611c184 0 333 149 333 333v1611c0 184-149 333-333 333h-1611c-184 0-333-149-333-333v-1611c0-184 149-333 333-333zm1278 667h-944v944h944z"/><path d="m8295 11810h1611c184 0 333 149 333 333v1611c0 184-149 333-333 333h-1611c-184 0-333-149-333-333v-1611c0-184 149-333 333-333zm1278 667h-944v944h944z"/><path d="m8295 14607h1611c184 0 333 149 333 333v1611c0 184-149 333-333 333h-1611c-184 0-333-149-333-333v-1611c0-184 149-333 333-333zm1278 667h-944v944h944z"/><path d="m8295 17367h1611c184 0 333 149 333 333v1611c0 184-149 333-333 333h-1611c-184 0-333-149-333-333v-1611c0-184 149-333 333-333zm1278 667h-944v944h944z"/><path d="m8295 20126h1611c184 0 333 149 333 333v1611c0 184-149 333-333 333h-1611c-184 0-333-149-333-333v-1611c0-184 149-333 333-333zm1278 667h-944v944h944z"/></g></g></svg>