<svg clip-rule="evenodd" fill-rule="evenodd" height="512" image-rendering="optimizeQuality" shape-rendering="geometricPrecision" text-rendering="geometricPrecision" viewBox="0 0 28444 28444" width="512" xmlns="http://www.w3.org/2000/svg"><g id="Layer_x0020_1"><g id="_228930352" fill-rule="nonzero"><path d="m3931 3582h20583c184 0 333 149 333 333v20583c0 184-149 333-333 333h-20583c-184 0-333-149-333-333v-20583c0-184 149-333 333-333zm20250 667h-19917v19917h19917z"/><path d="m8676 6956c607 0 1157 246 1554 644 398 398 644 947 644 1554 0 655-879 2064-1494 3050-171 273-320 513-416 680-92 159-296 213-454 121-54-31-95-75-123-125-96-167-245-405-414-676-615-985-1494-2395-1494-3050 0-607 246-1157 644-1554 398-398 947-644 1554-644zm1083 1115c-277-277-660-449-1083-449s-806 171-1083 449c-277 277-449 660-449 1083 0 466 820 1780 1393 2698 48 77 95 152 139 223 44-71 91-146 139-223 573-918 1393-2232 1393-2698 0-423-171-806-449-1083z"/><path d="m8676 8187c267 0 509 108 685 284 175 175 284 417 284 685 0 267-108 509-284 685-175 175-417 284-685 284-267 0-509-108-685-284-175-175-284-417-284-685 0-267 108-509 284-685 175-175 417-284 685-284zm213 755c-55-55-130-88-213-88s-159 34-213 88c-55 55-88 130-88 213s34 159 88 213c55 55 130 88 213 88s159-34 213-88c55-55 88-130 88-213s-34-159-88-213z"/><path d="m8826 12789c-54-1-104-15-149-38-44 24-95 38-149 39-433 10-815 59-1084 134-14 4-28 6-41 8 44 5 96 14 154 32 290 86 685 146 1125 146 442 0 840-60 1132-146 59-17 111-27 156-32-7-1-15-2-22-3-8-1-17-3-26-6-272-75-659-124-1096-132zm-150-625c48-26 104-40 163-39 493 10 937 67 1259 156h1c443 122 713 338 713 630 0 285-312 543-810 690-350 104-815 175-1320 175-504 0-965-71-1313-174-497-148-807-406-807-690 0-291 267-505 705-628 317-89 757-146 1246-158 59-1 115 13 163 38zm1469 741c-18 8-37 15-57 19 37-1 58-2 58-14 0-2 0-4-1-6zm-2917 6c0 15 35 12 98 15-62-15-98-47-98-15z"/><path d="m4096 21627c-159 91-362 37-453-122s-37-362 122-453l20537-11857c159-91 362-37 453 122s37 362-122 453z"/><path d="m15778 14560c65 172-21 364-193 430-172 65-364-21-430-193l-4100-10763c-65-172 21-364 193-430 172-65 364 21 430 193z"/><path d="m11212 17369c-47-178 58-360 236-408 178-47 360 58 408 236l1942 7246c47 178-58 360-236 408-178 47-360-58-408-236z"/><path d="m24200 20950c184 0 333 149 333 333s-149 333-333 333h-11563c-184 0-333-149-333-333s149-333 333-333z"/></g></g></svg>