<svg clip-rule="evenodd" fill-rule="evenodd" height="512" image-rendering="optimizeQuality" shape-rendering="geometricPrecision" text-rendering="geometricPrecision" viewBox="0 0 28444 28444" width="512" xmlns="http://www.w3.org/2000/svg"><g id="Layer_x0020_1"><g id="_227109472" fill-rule="nonzero"><path d="m14222 4264c-878 0-1673 356-2248 931s-931 1370-931 2248c0 972 424 2164 1099 3065 563 752 1295 1289 2080 1289s1517-537 2080-1289c675-900 1099-2093 1099-3065 0-878-356-1673-931-2248s-1370-931-2248-931zm-2720 460c696-696 1658-1127 2720-1127s2024 431 2720 1127 1127 1658 1127 2720c0 1105-477 2452-1235 3463-681 908-1594 1557-2612 1557s-1931-649-2612-1557c-758-1011-1235-2358-1235-3463 0-1062 431-2024 1127-2720z"/><path d="m15376 14498c184 0 333 149 333 333s-149 333-333 333h-2321c-184 0-333-149-333-333s149-333 333-333z"/><path d="m15689 11934c-184 0-333-149-333-333s149-333 333-333c512 0 1092 112 1632 316 511 193 990 470 1349 817 132 127 136 338 9 470s-338 136-470 9c-292-282-691-511-1123-674-465-176-961-272-1398-272z"/><path d="m12738 11265c183-4 335 142 339 326 4 183-142 335-326 339-434 9-928 116-1391 301-428 172-823 409-1108 696-129 130-340 131-470 1-130-129-131-340-1-470 352-354 826-642 1332-845 534-214 1112-338 1626-348z"/><path d="m19540 13280c1062 0 2024 431 2720 1127s1127 1658 1127 2720c0 1105-477 2452-1235 3463-681 908-1594 1557-2612 1557s-1931-649-2612-1557c-758-1011-1235-2359-1235-3463 0-1062 431-2024 1127-2720s1658-1127 2720-1127zm2248 1598c-575-575-1370-931-2248-931s-1673 356-2248 931-931 1370-931 2248c0 972 424 2164 1099 3065 563 752 1295 1289 2080 1289s1517-537 2080-1289c675-900 1099-2093 1099-3065 0-878-356-1673-931-2248z"/><path d="m18073 20949c184 0 333 149 333 333s-149 333-333 333c-885 0-1686 300-2253 832-462 433-771 1023-845 1733h9127c-77-664-381-1262-832-1713-525-525-1250-852-2046-852-184 0-333-149-333-333s149-333 333-333c981 0 1872 401 2518 1047s1047 1537 1047 2518c0 184-149 333-333 333h-9830c-184 0-333-149-333-333 0-1055 410-1929 1073-2551 691-648 1654-1014 2709-1014z"/><path d="m8905 13946c-878 0-1673 356-2248 931s-931 1370-931 2248c0 972 424 2164 1099 3065 563 752 1295 1289 2080 1289s1517-537 2080-1289c675-900 1099-2093 1099-3065 0-878-356-1673-931-2248s-1370-931-2248-931zm-2720 460c696-696 1658-1127 2720-1127s2024 431 2720 1127 1127 1658 1127 2720c0 1105-477 2452-1235 3463-681 908-1594 1557-2612 1557s-1931-649-2612-1557c-758-1011-1235-2358-1235-3463 0-1062 431-2024 1127-2720z"/><path d="m10371 21616c-184 0-333-149-333-333s149-333 333-333c1055 0 2018 366 2709 1014 663 621 1073 1496 1073 2551 0 184-149 333-333 333h-9830c-184 0-333-149-333-333 0-981 401-1872 1047-2518s1537-1047 2518-1047c184 0 333 149 333 333s-149 333-333 333c-797 0-1521 326-2046 852-451 451-755 1049-832 1713h9127c-74-710-383-1300-845-1733-567-531-1368-832-2253-832z"/></g></g></svg>