<svg clip-rule="evenodd" fill-rule="evenodd" height="512" image-rendering="optimizeQuality" shape-rendering="geometricPrecision" text-rendering="geometricPrecision" viewBox="0 0 28444 28444" width="512" xmlns="http://www.w3.org/2000/svg"><g id="Layer_x0020_1"><g id="_227110696" fill-rule="nonzero"><path d="m21362 10382c714 0 1361 289 1829 757s757 1115 757 1829c0 732-315 1624-816 2292-457 610-1075 1047-1770 1047s-1313-436-1770-1047c-501-668-816-1560-816-2292 0-714 289-1361 757-1829s1115-757 1829-757zm1357 1229c-347-347-827-562-1357-562s-1010 215-1357 562-562 827-562 1357c0 600 263 1336 681 1894 340 454 777 779 1239 779s899-325 1239-779c418-557 681-1294 681-1894 0-530-215-1010-562-1357z"/><path d="m20422 15323c184 0 333 149 333 333s-149 333-333 333c-537 0-1022 181-1363 501-247 231-420 538-486 905h5575c-68-345-239-654-479-894-315-315-750-511-1228-511-184 0-333-149-333-333s149-333 333-333c662 0 1263 271 1699 706 436 436 706 1037 706 1699 0 184-149 333-333 333h-6303c-184 0-333-149-333-333 0-711 277-1302 726-1723 466-436 1112-683 1819-683z"/><path d="m7082 10382c714 0 1361 289 1829 757s757 1115 757 1829c0 732-315 1624-816 2292-457 610-1075 1047-1770 1047s-1313-436-1770-1047c-501-668-816-1560-816-2292 0-714 289-1361 757-1829s1115-757 1829-757zm1357 1229c-347-347-827-562-1357-562s-1010 215-1357 562-562 827-562 1357c0 600 263 1336 681 1894 340 454 777 779 1239 779s899-325 1239-779c418-557 681-1294 681-1894 0-530-215-1010-562-1357z"/><path d="m6142 15323c184 0 333 149 333 333s-149 333-333 333c-537 0-1022 181-1363 501-247 231-420 538-486 905h5575c-68-345-239-654-479-894-315-315-750-511-1228-511-184 0-333-149-333-333s149-333 333-333c662 0 1263 271 1699 706 436 436 706 1037 706 1699 0 184-149 333-333 333h-6303c-184 0-333-149-333-333 0-711 277-1302 726-1723 466-436 1112-683 1819-683z"/><path d="m14222 3601c714 0 1361 289 1829 757s757 1115 757 1829c0 732-315 1624-816 2292-457 610-1075 1047-1770 1047s-1313-436-1770-1047c-501-668-816-1560-816-2292 0-714 289-1361 757-1829s1115-757 1829-757zm1357 1229c-347-347-827-562-1357-562s-1010 215-1357 562-562 827-562 1357c0 600 263 1336 681 1894 340 454 777 779 1239 779s899-325 1239-779c418-557 681-1294 681-1894 0-530-215-1010-562-1357z"/><path d="m13282 8542c184 0 333 149 333 333s-149 333-333 333c-537 0-1022 181-1363 501-247 231-420 538-486 905h5575c-68-345-239-654-479-894-315-315-750-511-1228-511-184 0-333-149-333-333s149-333 333-333c662 0 1263 271 1699 706 436 436 706 1037 706 1699 0 184-149 333-333 333h-6303c-184 0-333-149-333-333 0-711 277-1302 726-1723 466-436 1112-683 1819-683z"/><path d="m14222 17164c714 0 1361 289 1829 757s757 1115 757 1829c0 732-315 1624-816 2292-457 610-1075 1047-1770 1047s-1313-436-1770-1047c-501-668-816-1560-816-2292 0-714 289-1361 757-1829s1115-757 1829-757zm1357 1229c-347-347-827-562-1357-562s-1010 215-1357 562-562 827-562 1357c0 600 263 1336 681 1894 340 454 777 779 1239 779s899-325 1239-779c418-557 681-1294 681-1894 0-530-215-1010-562-1357z"/><path d="m13282 22105c184 0 333 149 333 333s-149 333-333 333c-537 0-1022 181-1363 501-247 231-420 538-486 905h5575c-68-345-239-654-479-894-315-315-750-511-1228-511-184 0-333-149-333-333s149-333 333-333c662 0 1263 271 1699 706 436 436 706 1037 706 1699 0 184-149 333-333 333h-6303c-184 0-333-149-333-333 0-711 277-1302 726-1723 466-436 1112-683 1819-683z"/></g></g></svg>